<svg width="27" height="15" viewBox="0 0 27 15" fill="none" xmlns="http://www.w3.org/2000/svg">
<path d="M1.05265 8.8548L23.6947 8.57066L19.8735 13.2417C19.7851 13.35 19.7184 13.475 19.6774 13.6095C19.6364 13.7441 19.6219 13.8855 19.6346 14.0258C19.6602 14.3091 19.7954 14.5704 20.0104 14.7523C20.2254 14.9341 20.5025 15.0216 20.7808 14.9955C21.0592 14.9693 21.316 14.8318 21.4946 14.613L26.7579 8.18498C26.7933 8.13385 26.825 8.08014 26.8526 8.02428C26.8526 7.97072 26.9053 7.93858 26.9263 7.88501C26.974 7.76217 26.999 7.63141 27 7.49933C26.999 7.36725 26.974 7.23649 26.9263 7.11365C26.9263 7.06008 26.8737 7.02794 26.8526 6.97438C26.825 6.91852 26.7933 6.86481 26.7579 6.81368L21.4946 0.385682C21.3957 0.264747 21.2717 0.167491 21.1316 0.100832C20.9915 0.0341724 20.8387 -0.000253554 20.6841 2.04663e-06C20.4381 -0.000487031 20.1998 0.0866931 20.0104 0.246409C19.9038 0.336346 19.8157 0.446801 19.7511 0.571447C19.6865 0.696094 19.6467 0.832483 19.634 0.972803C19.6213 1.11312 19.6359 1.25462 19.677 1.38918C19.7181 1.52374 19.7849 1.64873 19.8735 1.75699L23.6947 6.428L1.05265 6.71213C0.773472 6.71213 0.505726 6.82501 0.308315 7.02592C0.110904 7.22683 0 7.49933 0 7.78347C0 8.0676 0.110904 8.3401 0.308315 8.54101C0.505726 8.74193 0.773472 8.8548 1.05265 8.8548Z" fill="#F22F22"/>
</svg>
