<svg width="45" height="45" viewBox="0 0 45 45" fill="none" xmlns="http://www.w3.org/2000/svg">
<g clip-path="url(#clip0_107_1651)">
<path d="M13.2803 0.123046C13.0342 0.263671 12.8408 0.580077 12.832 0.861327C12.832 0.975585 13.4121 2.50488 14.1152 4.24512C15.5127 7.70801 15.627 7.91016 16.2246 7.91016C16.6553 7.91016 17.0508 7.51465 17.0508 7.09277C17.0508 6.9082 16.5586 5.58105 15.7764 3.63867C14.7832 1.19531 14.4404 0.430663 14.2295 0.237304C13.9482 -0.0263681 13.6143 -0.0615244 13.2803 0.123046Z" fill="#330099" fill-opacity="0.79"/>
<path d="M31.2451 0.166991C31.1484 0.210937 31.0078 0.316405 30.9287 0.404296C30.7002 0.659179 28.125 6.85547 28.125 7.13672C28.125 7.27734 28.1689 7.4707 28.2129 7.56738C28.3271 7.77832 28.749 7.99805 29.0391 7.99805C29.5225 7.99805 29.7246 7.65527 31.1045 4.35937C31.834 2.61914 32.4316 1.08984 32.4316 0.958007C32.4316 0.439452 31.7109 -0.0351572 31.2451 0.166991Z" fill="#330099" fill-opacity="0.79"/>
<path d="M21.9199 2.14452L21.6211 2.44335V4.35058V6.2578L21.9199 6.55663C22.2363 6.87304 22.5088 6.92577 22.8955 6.74999C23.335 6.55663 23.3789 6.31933 23.3789 4.35937C23.3789 2.40819 23.335 2.17968 22.9307 1.96874C22.5352 1.76659 22.2451 1.81933 21.9199 2.14452Z" fill="#330099" fill-opacity="0.79"/>
<path d="M8.14747 7.65523C7.90138 7.79585 7.71681 8.25288 7.76954 8.5605C7.83986 8.92085 10.2129 11.373 10.5645 11.4609C11.1621 11.6015 11.7774 10.9775 11.6367 10.3886C11.6016 10.248 11.0742 9.65034 10.292 8.85054C9.06154 7.61128 8.99122 7.55855 8.65724 7.55855C8.46388 7.55855 8.23536 7.60249 8.14747 7.65523Z" fill="#330099" fill-opacity="0.79"/>
<path d="M36.2549 7.82232C35.9209 7.97173 33.6006 10.3184 33.5391 10.5645C33.4512 10.9512 33.6885 11.4083 34.0576 11.5665C34.585 11.7862 34.8135 11.6456 36.1934 10.2569C37.3535 9.08794 37.4414 8.97368 37.4414 8.66607C37.4414 8.24419 37.3272 8.03326 37.002 7.86626C36.7207 7.71685 36.5186 7.70806 36.2549 7.82232Z" fill="#330099" fill-opacity="0.79"/>
<path d="M21.0059 8.53414C18.9492 8.77145 16.3213 9.65914 16.0313 10.2041C15.8291 10.5996 15.8731 10.9687 16.1631 11.2588C16.4883 11.5752 16.8399 11.5927 17.4639 11.2939C18.1318 10.9863 19.4326 10.582 20.3467 10.4062C21.5156 10.1777 23.6602 10.1953 24.8467 10.4414C29.9092 11.5224 33.5918 15.2578 34.5938 20.3466C34.8223 21.5156 34.8047 23.6601 34.5586 24.8466C33.4775 29.9091 29.7334 33.5918 24.6533 34.5937C23.5723 34.8046 21.4277 34.8046 20.3467 34.5937C19.1426 34.3564 17.9824 33.9609 16.875 33.3896C13.4912 31.667 11.1709 28.5293 10.4063 24.6533C10.1777 23.4931 10.1953 21.3486 10.4502 20.1533C10.6611 19.1338 11.0566 17.956 11.4434 17.1914C11.5928 16.9013 11.707 16.5322 11.707 16.3652C11.707 15.7148 11.0742 15.3105 10.4941 15.5918C10.2305 15.7148 10.125 15.8642 9.79981 16.5498C7.70802 21.0234 8.10352 26.2089 10.8545 30.3222C11.8652 31.8339 13.1748 33.1347 14.6777 34.1455C20.5313 38.0654 28.2568 37.081 32.9854 31.8252C34.1455 30.5332 35.2617 28.6259 35.8154 26.9472C37.1865 22.8339 36.5713 18.3076 34.1455 14.6777C31.2803 10.3886 26.0772 7.95406 21.0059 8.53414Z" fill="#330099" fill-opacity="0.79"/>
<path d="M13.1309 12.1289C12.8496 12.2432 12.5684 12.6475 12.5684 12.9375C12.5684 13.3066 13.0693 13.7988 13.4473 13.7988C13.8164 13.7988 14.0361 13.6758 14.1943 13.3594C14.4404 12.876 14.2998 12.3926 13.8428 12.1729C13.5176 12.0234 13.4033 12.0146 13.1309 12.1289Z" fill="#330099" fill-opacity="0.79"/>
<path d="M0.421885 12.8232C0.0439551 13.1572 0.017588 13.6846 0.351572 14.0098C0.624033 14.2734 6.78517 16.875 7.13673 16.875C7.27735 16.875 7.47071 16.8311 7.56739 16.7871C7.77833 16.6729 7.99806 16.251 7.99806 15.9609C7.99806 15.4688 7.65528 15.2754 4.35939 13.8955C2.61915 13.166 1.08985 12.5684 0.949229 12.5684C0.808604 12.5684 0.588877 12.6738 0.421885 12.8232Z" fill="#330099" fill-opacity="0.79"/>
<path d="M40.6934 14.1416C37.248 15.5479 37.0898 15.6445 37.0898 16.2246C37.0898 16.6553 37.4854 17.0508 37.9072 17.0508C38.1006 17.0508 39.4014 16.5674 41.3701 15.7764C44.6748 14.4404 45 14.2559 45 13.7549C45 13.2539 44.5869 12.832 44.1035 12.832C43.9893 12.832 42.46 13.4209 40.6934 14.1416Z" fill="#330099" fill-opacity="0.79"/>
<path d="M30.2607 18.4131C29.7334 18.6416 29.6719 19.0459 30.0059 20.0742C30.8057 22.5176 30.3223 25.2861 28.749 27.334C28.3975 27.7822 28.3096 27.9756 28.3008 28.2393C28.3008 28.7227 28.6787 29.0918 29.1621 29.0918C29.6104 29.0918 29.9004 28.8193 30.6035 27.7295C32.124 25.374 32.5459 22.5 31.7637 19.793C31.4736 18.8086 31.333 18.5537 30.9814 18.4043C30.6211 18.2549 30.6123 18.2549 30.2607 18.4131Z" fill="#330099" fill-opacity="0.79"/>
<path d="M2.40824 21.5332C2.30277 21.5684 2.13578 21.7178 2.02152 21.8584C1.76664 22.1836 1.81938 22.7197 2.15336 23.001C2.37309 23.1943 2.4434 23.2031 4.26273 23.2031C6.08207 23.2031 6.15238 23.1943 6.37211 23.001C6.52152 22.8779 6.6182 22.6846 6.65336 22.4473C6.69731 22.1309 6.66215 22.043 6.43363 21.7881L6.16996 21.4893L4.37699 21.4717C3.40141 21.4629 2.50492 21.4893 2.40824 21.5332Z" fill="#330099" fill-opacity="0.79"/>
<path d="M38.628 21.999C38.4786 22.1221 38.3819 22.3154 38.3467 22.5527C38.3028 22.8691 38.3379 22.957 38.5664 23.2119L38.8301 23.5107H40.7373H42.6446L42.9082 23.2119C43.1368 22.957 43.1719 22.8691 43.128 22.5527C43.0928 22.3154 42.9961 22.1221 42.8467 21.999C42.627 21.8057 42.5567 21.7969 40.7373 21.7969C38.918 21.7969 38.8477 21.8057 38.628 21.999Z" fill="#330099" fill-opacity="0.79"/>
<path d="M3.60352 29.2324C0.325195 30.5684 0 30.7529 0 31.2539C0 31.7373 0.413086 32.168 0.887695 32.168C0.984375 32.168 2.49609 31.5879 4.24512 30.8848C7.82227 29.4434 7.97168 29.3555 7.88379 28.7051C7.82227 28.2393 7.49707 27.9492 7.04883 27.958C6.84668 27.958 5.56348 28.4326 3.60352 29.2324Z" fill="#330099" fill-opacity="0.79"/>
<path d="M37.415 28.2217C37.2217 28.3359 37.002 28.7578 37.002 29.0391C37.002 29.5312 37.3447 29.7246 40.6406 31.1045C42.3809 31.834 43.9102 32.4316 44.0508 32.4316C44.1914 32.4316 44.4111 32.3262 44.5781 32.1768C44.9561 31.8428 44.9824 31.3154 44.6484 30.9902C44.3672 30.7178 38.2061 28.125 37.8457 28.125C37.6963 28.125 37.5029 28.1689 37.415 28.2217Z" fill="#330099" fill-opacity="0.79"/>
<path d="M25.251 29.8653C25.1455 29.9444 25.0137 30.1465 24.9522 30.2959C24.8115 30.709 25.0664 31.2012 25.4971 31.3594C26.3496 31.6758 27.0176 30.6123 26.376 29.9619C26.0684 29.6631 25.5674 29.6192 25.251 29.8653Z" fill="#330099" fill-opacity="0.79"/>
<path d="M10.2305 33.4424C10.0811 33.5215 9.42188 34.1279 8.7627 34.7959C7.64648 35.9121 7.55859 36.0263 7.55859 36.334C7.55859 36.5185 7.60254 36.7383 7.64648 36.8349C7.78711 37.0898 8.24414 37.292 8.54297 37.2304C8.86816 37.1689 11.1797 34.998 11.3818 34.5674C11.7246 33.8467 10.9512 33.0908 10.2305 33.4424Z" fill="#330099" fill-opacity="0.79"/>
<path d="M33.8378 33.6445C33.4072 33.8555 33.2402 34.3213 33.4336 34.7344C33.5127 34.9014 34.1279 35.5781 34.7959 36.2373C35.9121 37.3535 36.0263 37.4414 36.3339 37.4414C36.5185 37.4414 36.7382 37.3975 36.8349 37.3535C37.081 37.2129 37.2919 36.7559 37.2304 36.457C37.1689 36.123 34.875 33.7061 34.5058 33.5742C34.1806 33.46 34.1982 33.46 33.8378 33.6445Z" fill="#330099" fill-opacity="0.79"/>
<path d="M15.4775 37.2392C15.2842 37.4238 14.8799 38.3027 13.8955 40.6406C13.166 42.3721 12.5684 43.9101 12.5684 44.042C12.5684 44.1914 12.665 44.4023 12.8232 44.5781C13.1572 44.956 13.6846 44.9824 14.0098 44.6484C14.2822 44.3672 16.875 38.206 16.875 37.8457C16.8662 37.3975 16.4443 37.0019 15.9609 37.0019C15.8379 37.0019 15.6182 37.1074 15.4775 37.2392Z" fill="#330099" fill-opacity="0.79"/>
<path d="M28.4238 37.1777C28.1514 37.2832 27.9492 37.6084 27.9492 37.9336C27.9492 38.0918 28.5029 39.5947 29.2236 41.3701C30.5684 44.666 30.7529 45 31.2451 45C31.7373 45 32.168 44.5869 32.168 44.1123C32.168 44.0156 31.5879 42.4951 30.8848 40.7461C29.5225 37.3887 29.3555 37.0811 28.8457 37.0986C28.7139 37.0986 28.5205 37.1338 28.4238 37.1777Z" fill="#330099" fill-opacity="0.79"/>
<path d="M22.0693 38.4434C21.665 38.6631 21.6299 38.8652 21.6211 40.7197C21.6211 42.6182 21.6738 42.8555 22.1045 43.0488C22.4912 43.2246 22.7637 43.1719 23.0801 42.8555L23.3789 42.5566V40.79C23.3789 39.6123 23.3438 38.9531 23.2734 38.8037C23.0801 38.3818 22.5 38.206 22.0693 38.4434Z" fill="#330099" fill-opacity="0.79"/>
</g>
<defs>
<clipPath id="clip0_107_1651">
<rect width="45" height="45" fill="white"/>
</clipPath>
</defs>
</svg>
