<svg width="45" height="45" viewBox="0 0 45 45" fill="none" xmlns="http://www.w3.org/2000/svg">
<g clip-path="url(#clip0_107_1630)">
<path d="M13.8184 0.131866C12.6407 0.430695 11.375 1.43265 10.8037 2.5137C10.2237 3.61234 10.25 2.65433 10.25 19.0459C10.25 29.0742 10.2237 33.9346 10.1621 33.9698C9.95999 34.0928 9.33597 35.042 9.01077 35.71C8.52738 36.7295 8.37796 37.5117 8.4307 38.7598C8.46585 39.4014 8.54495 39.9639 8.65042 40.2979C9.35355 42.5039 11.0059 44.1211 13.1944 44.7539C14.1084 45.0088 15.708 45.0352 16.5782 44.7891C18.8545 44.1651 20.6651 42.3545 21.2891 40.0782C21.4034 39.6739 21.4473 39.1905 21.4473 38.4522C21.4473 36.8614 21.043 35.6485 20.1026 34.4444L19.6543 33.8819V19.2481C19.6543 10.1953 19.6192 4.37698 19.5664 3.99905C19.3907 2.74222 18.4239 1.3096 17.3252 0.65921C16.3321 0.0879211 14.8819 -0.131805 13.8184 0.131866ZM15.3916 1.94241C15.6817 1.99515 16.0508 2.10941 16.2266 2.1973C16.6748 2.42581 17.2373 3.01468 17.4746 3.49808L17.6768 3.91116L17.7207 19.2569C17.7647 34.4268 17.7647 34.6114 17.9405 34.8135C18.0371 34.9278 18.2832 35.209 18.4854 35.4287C19.7071 36.791 19.9532 38.8916 19.0743 40.6143C18.8194 41.1328 18.0196 42.003 17.4834 42.3545C14.9785 44.0157 11.4981 42.8028 10.5049 39.9199C9.95999 38.3379 10.3555 36.5625 11.542 35.253L12.0518 34.6817L12.0957 19.3887L12.1397 4.08694L12.3682 3.60355C12.4912 3.33109 12.7198 2.97073 12.8692 2.80374C13.2119 2.41702 13.9151 2.0303 14.4512 1.93362C14.6797 1.89847 14.8643 1.86331 14.8731 1.85452C14.8731 1.85452 15.1104 1.88968 15.3916 1.94241Z" fill="#330099" fill-opacity="0.79"/>
<path d="M14.6709 18.8262C14.5215 18.8613 14.3106 19.0019 14.2139 19.125C14.0293 19.3623 14.0293 19.4062 14.0293 27.5537V35.7539L13.5635 36.0176C12.2627 36.7471 11.7705 38.3994 12.4473 39.7265C12.6758 40.1748 13.2647 40.7373 13.7481 40.9746C14.3457 41.2646 15.5674 41.2646 16.1387 40.9658C16.6748 40.6846 17.1582 40.2099 17.4395 39.6826C17.6416 39.3047 17.6768 39.1377 17.6768 38.4521C17.6768 37.8017 17.6416 37.5908 17.4746 37.248C17.2197 36.7383 16.6748 36.1846 16.2266 35.9736L15.8838 35.8154L15.875 27.7207C15.875 22.1836 15.8486 19.5381 15.7783 19.3535C15.6289 18.914 15.1719 18.6943 14.6709 18.8262ZM15.5147 37.7578C16.0244 38.1797 15.9278 38.9443 15.3389 39.2519C14.7412 39.5596 14.0293 39.0937 14.0293 38.4082C14.0293 38.1445 14.0908 38.0039 14.3018 37.8017C14.6533 37.4414 15.1279 37.4238 15.5147 37.7578Z" fill="#330099" fill-opacity="0.79"/>
<path d="M1.58397 7.53223C1.4785 7.5498 1.28514 7.68164 1.15331 7.82227C0.792956 8.19141 0.810534 8.70996 1.18846 9.0791L1.46092 9.36035H4.62499H7.78905L8.06151 9.0791C8.45702 8.69238 8.45702 8.18262 8.06151 7.7959L7.78905 7.51465L4.7744 7.50586C3.12206 7.49707 1.68065 7.50586 1.58397 7.53223Z" fill="#330099" fill-opacity="0.79"/>
<path d="M5.13474 11.3906C4.56345 11.6982 4.49314 12.4541 4.98533 12.8672C5.249 13.0869 5.29294 13.0957 6.5322 13.0957H7.80662L8.0615 12.8408C8.53611 12.3662 8.3779 11.5576 7.77146 11.3467C7.34958 11.1973 5.42478 11.2324 5.13474 11.3906Z" fill="#330099" fill-opacity="0.79"/>
<path d="M27.3887 13.1836C26.2812 13.3594 25.4199 13.8252 24.6201 14.6865C24.084 15.2754 23.7939 15.7764 23.5479 16.5674C23.4072 17.0508 23.3896 17.4727 23.3896 21.5771C23.3896 25.9541 23.3984 26.0771 23.583 26.6748C24.0664 28.2041 25.3672 29.4346 26.9229 29.8389C27.6348 30.0234 30.4033 30.0234 31.124 29.8389C33.084 29.3203 34.5957 27.4219 34.5957 25.4619C34.5957 25.0137 34.5605 24.917 34.3408 24.6885C34.2002 24.5479 33.9893 24.4248 33.875 24.4248C33.1016 24.3809 32.8467 24.6533 32.7148 25.6641C32.583 26.6045 31.959 27.4395 31.0889 27.8525C30.6406 28.0635 30.4824 28.0811 29.2783 28.1074C28.4697 28.1338 27.7754 28.0986 27.4766 28.0371C26.8789 27.9053 26.1494 27.4482 25.8154 26.9736C25.2705 26.2266 25.2705 26.2178 25.2969 21.3926L25.3232 17.0068L25.5605 16.5674C25.8418 16.04 26.3252 15.5654 26.8613 15.2842C27.2217 15.0908 27.3799 15.0732 28.8125 15.0469C30.5527 15.0117 30.9395 15.082 31.5986 15.5654C32.2578 16.0312 32.5918 16.7168 32.7939 17.9473C32.9082 18.6855 33.7959 18.9756 34.3232 18.4482C34.5605 18.2109 34.5957 18.123 34.5957 17.6748C34.5957 16.5937 34.1035 15.4248 33.2949 14.5986C32.1787 13.4561 31.4141 13.1748 29.3223 13.1396C28.5225 13.1221 27.6523 13.1396 27.3887 13.1836Z" fill="#330099" fill-opacity="0.79"/>
<path d="M38.7266 13.2188C38.1025 13.3594 37.7861 13.5264 37.3467 13.9746C36.749 14.5635 36.5732 15.0205 36.5732 15.9521C36.5732 16.6377 36.6084 16.8047 36.8105 17.1826C37.0918 17.71 37.5752 18.1846 38.1113 18.4658C38.4365 18.6416 38.6387 18.6768 39.2979 18.6768C40.2295 18.6768 40.6865 18.501 41.2754 17.9033C41.7236 17.4551 41.9346 17.0596 42.0488 16.4355C42.4092 14.4844 40.6689 12.7969 38.7266 13.2188ZM39.9482 15.3018C40.6689 16.0137 39.8164 17.2178 38.9111 16.752C38.3223 16.4443 38.2256 15.6797 38.7354 15.2578C39.1221 14.9238 39.5967 14.9414 39.9482 15.3018Z" fill="#330099" fill-opacity="0.79"/>
<path d="M4.98535 15.2579C4.48437 15.6798 4.57226 16.4444 5.15234 16.7432C5.45996 16.9014 7.34082 16.9278 7.77148 16.7784C8.37793 16.5675 8.53613 15.7589 8.06152 15.2843L7.80664 15.0294H6.53223C5.29297 15.0294 5.24902 15.0382 4.98535 15.2579Z" fill="#330099" fill-opacity="0.79"/>
<path d="M1.58397 18.7822C1.4785 18.7998 1.28514 18.9316 1.15331 19.0723C0.792956 19.4414 0.810534 19.96 1.18846 20.3291L1.46092 20.6104H4.62499H7.78905L8.06151 20.3291C8.45702 19.9424 8.45702 19.4326 8.06151 19.0459L7.78905 18.7646L4.7744 18.7559C3.12206 18.7471 1.68065 18.7559 1.58397 18.7822Z" fill="#330099" fill-opacity="0.79"/>
<path d="M5.13474 22.6406C4.56345 22.9482 4.49314 23.7041 4.98533 24.1172C5.249 24.3369 5.29294 24.3457 6.5322 24.3457H7.80662L8.0615 24.0908C8.53611 23.6162 8.3779 22.8076 7.77146 22.5967C7.34958 22.4473 5.42478 22.4824 5.13474 22.6406Z" fill="#330099" fill-opacity="0.79"/>
<path d="M4.98535 26.5079C4.48437 26.9298 4.57226 27.6944 5.15234 27.9932C5.45996 28.1514 7.34082 28.1778 7.77148 28.0284C8.37793 27.8175 8.53613 27.0089 8.06152 26.5343L7.80664 26.2794H6.53223C5.29297 26.2794 5.24902 26.2882 4.98535 26.5079Z" fill="#330099" fill-opacity="0.79"/>
<path d="M1.58397 30.0322C1.4785 30.0498 1.28514 30.1816 1.15331 30.3223C0.792956 30.6914 0.810534 31.21 1.18846 31.5791L1.46092 31.8604H4.62499H7.78905L8.06151 31.5791C8.45702 31.1924 8.45702 30.6826 8.06151 30.2959L7.78905 30.0146L4.7744 30.0059C3.12206 29.9971 1.68065 30.0059 1.58397 30.0322Z" fill="#330099" fill-opacity="0.79"/>
</g>
<defs>
<clipPath id="clip0_107_1630">
<rect width="45" height="45" fill="white"/>
</clipPath>
</defs>
</svg>
