<svg width="45" height="45" viewBox="0 0 45 45" fill="none" xmlns="http://www.w3.org/2000/svg">
<path d="M20.6631 0.0966759C15.3721 0.650387 10.4941 3.79687 7.76953 8.41113C4.8252 13.3857 4.60547 19.582 7.17188 24.7236C8.09473 26.5605 9.06152 27.8965 10.5117 29.3203L11.4082 30.208L10.4238 30.2607C8.77148 30.3574 7.80469 30.7617 6.80273 31.7637C6.09082 32.4756 5.69531 33.2051 5.49316 34.1455C5.30859 35.0244 5.30859 40.21 5.49316 41.0889C5.80957 42.5742 6.76758 43.8223 8.1123 44.4639C8.50781 44.6572 9.07031 44.8506 9.35156 44.9033C9.71191 44.9736 13.9307 45 22.5352 45C33.1875 45 35.2969 44.9736 35.7979 44.8682C37.1514 44.5869 38.4609 43.5674 39.0674 42.3369C39.5772 41.291 39.6387 40.834 39.6387 37.6172C39.6387 34.4355 39.5772 33.9434 39.0938 32.959C38.7422 32.2383 37.6963 31.166 36.9932 30.8232C35.8418 30.252 36.6328 30.2871 24.5654 30.2344L13.5791 30.1904L12.876 29.6543C7.64648 25.6553 5.45801 18.7295 7.43555 12.3926C9.05273 7.20703 13.3594 3.12011 18.6152 1.81054C20.0303 1.45019 20.7949 1.37109 22.5 1.37109C24.2051 1.37109 24.9697 1.45019 26.3848 1.81054C34.6289 3.86718 39.7793 12.2519 37.916 20.5576C37.2832 23.3789 36.1494 25.5146 33.9785 27.9932C33.583 28.4414 33.5566 28.8193 33.8906 29.083C34.2773 29.3818 34.5234 29.3203 35.0068 28.8018C37.3799 26.2881 38.9795 22.9307 39.4717 19.4238C39.665 18.0791 39.6211 15.6445 39.3838 14.2822C37.8106 5.30859 29.6895 -0.843754 20.6631 0.0966759ZM11.0742 31.6143C11.0742 31.6582 10.8896 31.9219 10.6787 32.2031C10.3975 32.5723 10.2832 32.8096 10.2832 33.0117C10.2832 33.6006 10.9688 33.8818 11.3643 33.4512C11.4697 33.3369 11.8389 32.8623 12.1729 32.3965L12.7881 31.5615L14.6602 31.5527C15.6797 31.5527 16.5234 31.5615 16.5234 31.5791C16.5234 31.5967 16.1279 32.1768 15.6445 32.8711C15.1523 33.5918 14.7656 34.2334 14.7656 34.3477C14.7656 34.6113 15.1436 34.9805 15.4072 34.9805C15.7412 34.9805 15.9258 34.7783 17.0771 33.1348L18.1494 31.5967L19.9775 31.5703C20.9795 31.5615 21.7969 31.5703 21.7969 31.6055C21.7969 31.6406 21.6211 31.9131 21.4014 32.2207C21.1641 32.5547 21.0059 32.8623 21.0059 33.0117C21.0059 33.4863 21.5859 33.8203 21.9727 33.583C22.043 33.5303 22.4121 33.0732 22.8076 32.5459L23.5107 31.5967L25.3828 31.5703C26.4023 31.5615 27.2461 31.5703 27.2461 31.5879C27.2461 31.6055 26.8682 32.168 26.4111 32.8271C25.9541 33.4951 25.5586 34.1104 25.5322 34.1982C25.3828 34.6641 25.998 35.1387 26.4375 34.8838C26.5693 34.8135 27.167 34.04 27.7734 33.1787L28.8721 31.5967L30.7002 31.5703C31.7022 31.5615 32.5195 31.5791 32.5195 31.623C32.5195 31.667 32.3438 31.9307 32.124 32.2207C31.6494 32.8447 31.6055 33.2051 31.957 33.4775C32.2471 33.7061 32.5283 33.7148 32.7656 33.5039C32.8623 33.4248 33.2402 32.9502 33.6094 32.4492C34.3477 31.4648 34.2861 31.4912 35.2441 31.6494C35.9912 31.7637 36.5977 32.0537 37.1338 32.5371C37.9951 33.3193 38.3203 34.2334 38.3203 35.9209V37.002H26.0596C13.9131 37.002 13.7988 37.002 13.623 37.1777C13.3857 37.415 13.3945 37.8896 13.6318 38.1094C13.8164 38.2676 14.1592 38.2764 26.0684 38.3027L38.3203 38.3203V39.3223C38.3203 40.5176 38.2148 41.1152 37.916 41.7129C37.6523 42.2402 37.0283 42.9082 36.5186 43.207C36.0615 43.4707 35.2354 43.6816 34.6729 43.6816L34.2334 43.6729L33.1084 42.0469C32.3965 41.0186 31.8955 40.3857 31.7637 40.3418C31.3242 40.1748 30.7705 40.6406 30.9023 41.0625C30.9287 41.1768 31.3066 41.7568 31.7197 42.3633C32.1416 42.9697 32.5195 43.5146 32.5547 43.5674C32.6074 43.6553 32.2207 43.6816 30.7354 43.6816H28.8545L28.2217 42.8027C27.8701 42.3281 27.4834 41.8447 27.3516 41.748C27.0791 41.5283 26.7539 41.5723 26.5254 41.8535C26.2705 42.1436 26.332 42.46 26.7627 43.0312C26.9736 43.3125 27.1582 43.5762 27.1582 43.6113C27.1582 43.6553 26.3408 43.6816 25.3389 43.6816H23.5107L22.3682 42.0381C21.1113 40.2363 20.9355 40.0781 20.4873 40.4033C20.3643 40.5 20.2236 40.6846 20.1797 40.8164C20.0918 41.0449 20.2676 41.335 21.7881 43.5059C21.9023 43.6816 21.876 43.6816 20.0303 43.6816H18.1494L17.4199 42.7148C16.708 41.7568 16.418 41.5195 16.1104 41.6338C15.5127 41.8447 15.4951 42.3105 16.04 43.0576C16.2598 43.3564 16.4355 43.6113 16.4355 43.6377C16.4355 43.6641 15.6094 43.6816 14.6074 43.6816H12.7793L11.6455 42.0469C10.916 40.9922 10.4326 40.3857 10.292 40.333C9.98438 40.21 9.62402 40.3857 9.4834 40.7109C9.35156 41.0361 9.41309 41.168 10.415 42.6006L11.1709 43.6816H10.5293C9.3252 43.6816 8.47266 43.3477 7.72559 42.583C6.93457 41.7832 6.67969 40.9922 6.67969 39.3223V38.3203H8.91211C11.0303 38.3203 11.1533 38.3115 11.373 38.1357C11.6631 37.9072 11.6895 37.4414 11.4258 37.1777C11.2588 37.0107 11.1357 37.002 8.96484 37.002H6.67969V35.9209C6.67969 34.7168 6.81152 34.0664 7.18066 33.3721C7.6377 32.5371 8.68359 31.8164 9.66797 31.6494C10.2832 31.5527 11.0742 31.5352 11.0742 31.6143Z" fill="#330099" fill-opacity="0.79"/>
<path d="M20.8388 2.46973C20.3818 2.6543 20.2675 3.07617 20.5752 3.46289L20.7509 3.69141H22.5H24.249L24.4248 3.46289C24.7412 3.05859 24.6181 2.64551 24.1347 2.46094C23.8359 2.34668 21.1289 2.35547 20.8388 2.46973Z" fill="#330099" fill-opacity="0.79"/>
<path d="M21.1465 5.44922C17.6748 5.88867 14.6338 7.76953 12.7002 10.6787C11.9092 11.874 11.417 13.0166 11.0654 14.458C10.8281 15.4688 10.8457 15.8467 11.1269 16.0752C11.6631 16.4971 12.0674 16.1719 12.2695 15.1611C13.0166 11.3994 15.7763 8.31446 19.3886 7.18067C20.2148 6.91699 21.709 6.67969 22.5 6.67969C22.7988 6.67969 23.4668 6.74121 23.9765 6.82031C26.1826 7.14551 28.0547 8.05078 29.6455 9.57129C32.9765 12.7354 33.8642 17.6836 31.834 21.7529C30.0498 25.3213 26.5078 27.5098 22.5088 27.5098C19.6347 27.5098 17.1738 26.499 15.1523 24.4775C13.6318 22.957 12.7002 21.2256 12.2607 19.0723C12.1025 18.334 11.9179 18.0791 11.5224 18.0791C10.8896 18.0791 10.7666 18.5537 11.0742 19.8369C11.584 21.9814 12.6211 23.8096 14.2295 25.4004C15.9433 27.0967 17.6924 28.0635 20.083 28.6172C20.6455 28.749 21.1289 28.7842 22.5439 28.7842C24.1611 28.7842 24.372 28.7666 25.2509 28.5381C27.4658 27.9844 29.1445 27.0352 30.7705 25.4092C33.0732 23.1064 34.2246 20.3291 34.2158 17.0508C34.1982 13.0869 32.291 9.5625 28.9248 7.29492C27.791 6.53906 26.1035 5.85352 24.6709 5.58106C23.792 5.41406 21.9726 5.34375 21.1465 5.44922Z" fill="#330099" fill-opacity="0.79"/>
<path d="M21.0762 8.04199C16.3037 8.78906 12.8408 13.2627 13.3594 18.0176C13.5879 20.127 14.4053 21.9111 15.8203 23.4053C17.6221 25.3213 19.8633 26.2793 22.5352 26.2793C25.5059 26.2793 28.125 24.9521 29.9004 22.5527C31.9922 19.7314 32.2647 15.8818 30.5947 12.7793C29.2061 10.2129 26.7364 8.47266 23.8448 8.04199C22.8164 7.88379 22.0957 7.88379 21.0762 8.04199ZM24.3545 9.4834C24.7149 9.58008 25.1719 9.7207 25.3565 9.79102L25.6992 9.94043L25.128 10.5117L24.5655 11.083L24.5567 11.6104L24.5479 12.1377L23.6778 13.0166C22.9043 13.79 22.7725 13.8867 22.5 13.8867C22.2276 13.8867 22.0957 13.79 21.3223 13.0166L20.4522 12.1377L20.4434 11.6104L20.4346 11.083L19.8721 10.5117L19.3008 9.94043L19.6084 9.80859C21.0059 9.22852 22.8604 9.09668 24.3545 9.4834ZM18.6416 11.127L19.1426 11.6279L19.0987 12.0938L19.0459 12.5684L19.8985 13.4385L20.751 14.2998L20.2237 14.8271L19.6963 15.3545L19.0108 14.6602C18.2022 13.834 17.9912 13.7109 17.4287 13.7109C17.0244 13.7109 16.9717 13.6846 16.4971 13.2012L15.9873 12.6826L16.3301 12.252C16.8662 11.584 17.9121 10.6348 18.0967 10.6348C18.1231 10.6348 18.3692 10.8545 18.6416 11.127ZM27.1582 10.7754C27.4922 11.0039 28.2832 11.7686 28.6699 12.252L29.0127 12.6826L28.503 13.2012C28.002 13.7109 27.9932 13.7109 27.4834 13.7109H26.9737L26.1299 14.5283L25.2949 15.3457L24.7676 14.8271L24.249 14.2998L25.1016 13.4385L25.9541 12.5684L25.9014 12.1113L25.8574 11.6455L26.3496 11.1357C26.6221 10.8633 26.8682 10.6348 26.8946 10.6348C26.9209 10.6348 27.044 10.6963 27.1582 10.7754ZM16.5059 15.0205C16.6377 15.0908 16.8399 15.1084 17.0684 15.0732L17.4199 15.0117L18.334 15.917C19.5557 17.1387 19.5557 17.1299 18.3955 18.2988L17.5342 19.1602H17.0244H16.5059L15.9082 19.7402L15.3018 20.3203L15.1612 19.9863C14.4844 18.3691 14.4756 15.8994 15.1524 14.2822L15.293 13.9482L15.8028 14.4316C16.0752 14.6953 16.3916 14.959 16.5059 15.0205ZM30.0059 14.748C30.2696 15.6006 30.4365 16.9277 30.3662 17.666C30.2959 18.3604 30.0322 19.5205 29.8389 19.9863L29.6983 20.3203L29.0918 19.7402C28.4942 19.1602 28.4942 19.1602 27.9844 19.1602H27.4658L26.6133 18.3076C25.4444 17.1387 25.4444 17.1387 26.666 15.917L27.5801 15.0117L27.9405 15.0732C28.3711 15.1436 28.6612 14.9854 29.2588 14.3789C29.4697 14.1592 29.6807 14.001 29.7158 14.0273C29.7598 14.0537 29.8828 14.3701 30.0059 14.748ZM23.5459 15.4951C24.0821 15.8555 24.3545 16.3213 24.4073 16.9805C24.4424 17.4639 24.416 17.5957 24.1963 18.0176C23.8623 18.6416 23.3174 19.002 22.6055 19.0547C22.1836 19.0811 22.0254 19.0459 21.6211 18.835C20.2237 18.0967 20.2324 16.1016 21.6387 15.3896C22.1836 15.1084 23.0362 15.1611 23.5459 15.4951ZM20.2061 19.415L20.7246 19.9336L20.0215 20.6191C19.1778 21.4541 19.0371 21.7002 19.0987 22.1836C19.1514 22.5264 19.1338 22.5615 18.6153 23.0889L18.0791 23.6338L17.6836 23.3525C17.2793 23.0625 16.3653 22.1221 16.1104 21.7441C15.9698 21.5244 15.9698 21.5156 16.4883 20.9971L16.9981 20.4785L17.5078 20.5049L18.0176 20.5225L18.8262 19.7051C19.2744 19.2656 19.6524 18.8965 19.6612 18.8965C19.6787 18.8965 19.916 19.125 20.2061 19.415ZM26.1739 19.7051L26.9824 20.5225L27.4922 20.5049L28.002 20.4785L28.5117 20.9971C29.0303 21.5156 29.0303 21.5244 28.8897 21.7441C28.6348 22.1221 27.7207 23.0625 27.3164 23.3525L26.9209 23.6338L26.3848 23.0889C25.8662 22.5615 25.8487 22.5264 25.9014 22.1836C25.9629 21.7002 25.8223 21.4541 24.9785 20.6191L24.2754 19.9336L24.7764 19.4238C25.0489 19.1426 25.2862 18.9053 25.3125 18.9053C25.3301 18.8965 25.7168 19.2656 26.1739 19.7051ZM23.6953 21.2783C24.5391 22.1221 24.5918 22.1924 24.5479 22.4648C24.4688 22.9395 24.5918 23.1943 25.1543 23.7832L25.6905 24.3369L25.4619 24.4248C24.3369 24.8555 23.9678 24.917 22.5 24.917C21.0323 24.917 20.6631 24.8555 19.5381 24.4248L19.3096 24.3369L19.8457 23.7832C20.4082 23.2031 20.5313 22.9482 20.4522 22.4736C20.4082 22.21 20.4698 22.1309 21.2959 21.2871C22.5 20.0742 22.4912 20.0742 23.6953 21.2783Z" fill="#330099" fill-opacity="0.79"/>
</svg>
