<svg width="45" height="45" viewBox="0 0 45 45" fill="none" xmlns="http://www.w3.org/2000/svg">
<path d="M42.4092 20.4961C42.251 18.7207 41.7412 16.4092 41.1436 14.8008C40.625 13.3946 39.5967 11.3819 38.7441 10.1075C33.9189 2.86527 25.6045 -0.914028 17.0088 0.21976C13.1504 0.729526 9.49414 2.25003 6.38281 4.63187C5.54785 5.26468 5.54785 5.26468 5.41602 5.07132C5.1084 4.62308 4.7041 4.24515 4.2998 4.043C3.70215 3.73539 2.56836 3.7266 1.98828 4.02542C1.43457 4.31546 0.977539 4.78128 0.740234 5.30863L0.538086 5.75687L0.538085 22.1485L0.538084 38.5401L0.740233 38.9444C1.53125 40.5616 3.64941 40.9834 4.89746 39.7618L5.20508 39.4629L5.96973 40.0694C7.18262 41.045 8.50976 41.8799 10.083 42.6709C16.9473 46.0811 25.165 45.7032 31.7305 41.6866C33.6641 40.4912 35.7822 38.6719 37.25 36.9141C38.7705 35.1123 40.3174 32.4317 41.1436 30.1993C42.2246 27.2637 42.6904 23.6866 42.4092 20.4961ZM40.2647 21.709L39.5176 21.709L39.5176 22.5L39.5176 23.2911L40.2471 23.2911L40.9766 23.2911L40.9502 23.8448C40.8184 26.0596 40.1504 28.8194 39.2539 30.8584C38.9375 31.5704 38.4805 32.5196 38.4189 32.5899C38.4014 32.6075 38.1025 32.4317 37.7422 32.1944C37.3906 31.9571 37.0566 31.7373 37.0039 31.7022C36.9424 31.667 36.7402 31.8955 36.4941 32.2559L36.0898 32.8711L36.8369 33.3633C37.25 33.6446 37.584 33.8907 37.584 33.9258C37.584 34.1455 35.791 36.3428 34.8242 37.3184C33.8486 38.2852 31.6514 40.0782 31.4316 40.0782C31.3965 40.0782 31.1504 39.7442 30.8691 39.3311L30.377 38.584L29.7617 38.9883C29.4189 39.2168 29.1465 39.419 29.1465 39.4366C29.1465 39.4541 29.3662 39.7881 29.6299 40.1924L30.1133 40.9131L29.4277 41.2559C26.958 42.5039 23.9258 43.3125 21.2803 43.4356L20.7529 43.4619L20.7266 42.3369L20.7002 41.2119L19.9795 41.2383L19.2588 41.2647L19.2324 42.3897L19.2061 43.5147L18.9248 43.4707C18.7666 43.4444 18.3271 43.4004 17.9404 43.3741C16.2705 43.2422 14.0557 42.7237 12.3506 42.0469C11.6738 41.7832 10.0303 41.0098 9.91601 40.9131C9.89844 40.8955 10.0742 40.5967 10.3115 40.2364C10.5488 39.8848 10.7686 39.5508 10.8037 39.4981C10.8389 39.4366 10.6104 39.2344 10.25 38.9883L9.63476 38.584L9.14258 39.3311C8.86133 39.7442 8.61523 40.0782 8.58008 40.0782C8.47461 40.0782 7.18262 39.1289 6.45312 38.5137L5.76758 37.9424L5.75 35.4727L5.72363 33.003L5.00293 32.9766L4.27344 32.9502L4.27344 35.4551C4.27344 37.0108 4.23828 38.0479 4.17676 38.2061C4.03613 38.5752 3.75488 38.8389 3.37695 38.9444C2.9375 39.0586 2.48047 38.8565 2.19043 38.417L1.98828 38.1182L1.98828 25.3828L1.98828 12.6475L2.50684 13.0078C2.79687 13.2012 3.05176 13.3594 3.06934 13.3594C3.08691 13.3594 3.28906 13.0869 3.51758 12.7442L3.92187 12.1289L2.95508 11.4961L1.98828 10.8545L1.98828 8.543C1.98828 6.55667 2.00586 6.17874 2.1377 5.91507C2.41895 5.31742 3.13965 5.09769 3.70215 5.44925C4.19434 5.75687 4.27344 6.04691 4.27344 7.59378L4.27344 8.96488L5.02051 8.96488L5.76758 8.96488L5.76758 8.01566L5.76758 7.07523L6.45313 6.49515C7.15625 5.88871 8.47461 4.92191 8.58008 4.92191C8.61524 4.92191 8.86133 5.25589 9.14258 5.66898L9.63477 6.41605L10.25 6.01175C10.6104 5.76566 10.8389 5.56351 10.8037 5.50199C10.7686 5.44925 10.5488 5.11527 10.3115 4.76371C10.0742 4.40335 9.89844 4.10453 9.91602 4.07816C10.0215 3.98148 12.0869 3.04105 12.7197 2.80374C14.3457 2.20609 16.3848 1.74906 17.9404 1.62601C18.3272 1.59964 18.7666 1.5557 18.9248 1.52933L19.2061 1.48539L19.2324 2.61039L19.2588 3.73539L19.9795 3.76175L20.7002 3.78812L20.7266 2.66312L20.7529 1.53812L21.2803 1.56449C23.9258 1.68753 26.958 2.49613 29.4277 3.74418L30.1133 4.08695L29.6299 4.80765C29.3662 5.21195 29.1465 5.54593 29.1465 5.56351C29.1465 5.58109 29.4189 5.78324 29.7617 6.01175L30.377 6.41605L30.8691 5.66898C31.1504 5.25589 31.3965 4.92191 31.4316 4.92191C31.6514 4.92191 33.8486 6.71488 34.8242 7.68168C35.791 8.65726 37.584 10.8545 37.584 11.0743C37.584 11.1094 37.25 11.3555 36.8369 11.6368L36.0898 12.1289L36.4941 12.7442C36.7402 13.1045 36.9424 13.333 37.0039 13.2979C37.0566 13.2627 37.3906 13.043 37.7422 12.8057C38.1025 12.5684 38.4014 12.3926 38.4189 12.4102C38.4805 12.4805 38.9375 13.4297 39.2539 14.1416C40.124 16.1192 40.7305 18.5362 40.915 20.7862C40.959 21.2256 40.9941 21.6036 41.0029 21.6475C41.0029 21.6827 40.6777 21.709 40.2647 21.709Z" fill="#330099" fill-opacity="0.79"/>
<path d="M35.6855 21.1377C35.668 20.9971 35.6064 20.5576 35.5537 20.1709C34.833 14.6953 30.7461 9.67675 25.4375 7.73436C19.6807 5.62499 13.2383 7.04882 8.89648 11.3906C6.88379 13.3945 5.53906 15.7236 4.80957 18.457C4.41406 19.9072 4.31738 20.7246 4.31738 22.5C4.31738 23.4492 4.37012 24.4336 4.44043 24.873C5.45117 31.1484 10.0303 36.1933 16.1387 37.749C21.4912 39.1113 27.1865 37.5381 31.1152 33.6094C33.4531 31.2715 34.9736 28.3271 35.5361 25.0488C35.6592 24.3193 35.7646 21.665 35.6855 21.1377ZM34.1914 23.5898L34.1299 23.9941L31.2998 23.9941C28.7246 23.9941 28.4434 24.0117 28.2764 24.1523C28.1709 24.2314 27.9775 24.6181 27.8369 25.0049C27.7051 25.3916 27.4502 25.998 27.2744 26.3408C26.7383 27.3955 26.6592 27.2373 28.9619 29.5664L30.9746 31.5967L30.5264 32.0801C30.2715 32.3437 29.8408 32.7744 29.5596 33.0381L29.0498 33.5215L27.0107 31.4824C25.3496 29.8301 24.9189 29.4433 24.7256 29.4433C24.5937 29.4433 24.207 29.584 23.8643 29.7598C23.5215 29.9355 22.915 30.1904 22.5195 30.331C22.1328 30.4717 21.7373 30.665 21.6582 30.7705C21.5176 30.9375 21.5 31.2187 21.5 33.7939L21.5 36.624L21.1748 36.6855C20.7441 36.7558 19.2676 36.7558 18.8457 36.6855L18.5117 36.624L18.5117 33.8642C18.5117 30.8496 18.4854 30.7002 18.0107 30.5156C17.8789 30.4629 17.5625 30.3574 17.3164 30.2871C17.0791 30.208 16.5693 29.9883 16.1914 29.7949C15.8135 29.6015 15.418 29.4433 15.3125 29.4433C14.9961 29.4433 14.5479 29.8301 12.6758 31.7109L10.9268 33.4775L10.4258 33.0205C10.1445 32.7656 9.71387 32.3349 9.45898 32.0537L8.99316 31.5439L11.0234 29.4961C12.7109 27.8174 13.0625 27.4131 13.0625 27.2109C13.0625 27.0791 12.9307 26.7275 12.7637 26.4287C12.5967 26.1299 12.333 25.5146 12.1748 25.0664C11.9463 24.4072 11.8496 24.2226 11.6475 24.126C11.4453 24.0205 10.8828 23.9941 8.6416 23.9941L5.88184 23.9941L5.82031 23.7217C5.75 23.3613 5.75 21.6387 5.82031 21.2783L5.88184 21.0058L8.6416 21.0058C10.8828 21.0058 11.4453 20.9795 11.6475 20.874C11.8496 20.7773 11.9463 20.5928 12.1748 19.9336C12.333 19.4853 12.5967 18.8701 12.7637 18.5713C12.9307 18.2724 13.0625 17.9209 13.0625 17.789C13.0625 17.5869 12.7109 17.1826 11.0234 15.5039L8.99316 13.456L9.45898 12.9463C9.71387 12.665 10.1445 12.2344 10.4258 11.9795L10.9268 11.5224L12.6758 13.289C14.5479 15.1699 14.9961 15.5566 15.3125 15.5566C15.418 15.5566 15.8135 15.3984 16.1914 15.2051C16.5693 15.0117 17.0791 14.792 17.3164 14.7129C17.5625 14.6426 17.8789 14.5371 18.0107 14.4844C18.4854 14.2998 18.5117 14.1504 18.5117 11.1357L18.5117 8.37596L18.8457 8.31444C19.2676 8.24413 20.7441 8.24413 21.1748 8.31444L21.5 8.37596L21.5 11.206C21.5 13.7812 21.5176 14.0625 21.6582 14.2295C21.7373 14.3349 22.1328 14.5283 22.5195 14.6689C22.915 14.8096 23.5215 15.0644 23.8643 15.2402C24.207 15.416 24.5937 15.5566 24.7256 15.5566C24.9189 15.5566 25.3496 15.1699 27.0107 13.5176L29.0498 11.4785L29.5596 11.9619C29.8408 12.2256 30.2715 12.6562 30.5264 12.9199L30.9746 13.4033L28.9619 15.4336C26.6592 17.7627 26.7383 17.6045 27.2744 18.6592C27.4502 19.0019 27.7051 19.6084 27.8369 19.9951C27.9775 20.3818 28.1709 20.7685 28.2764 20.8564C28.4434 20.9883 28.7246 21.0058 31.2998 21.0058L34.1475 21.0058L34.1826 21.2959C34.2441 21.7881 34.2441 23.1592 34.1914 23.5898ZM31.5723 19.5117L29.252 19.5117L29.1377 19.1865C29.0762 19.0019 28.9355 18.6592 28.8301 18.4131L28.6191 17.9736L30.2627 16.3301L31.9062 14.6865L32.2051 15.1787C32.8555 16.2685 33.418 17.5693 33.7256 18.7119C33.8047 19.0283 33.8838 19.3447 33.8838 19.4062C33.8926 19.4853 33.374 19.5117 31.5723 19.5117ZM33.7168 26.2617C33.418 27.4394 32.8818 28.6875 32.2051 29.8213L31.9062 30.3135L30.2627 28.6699L28.6191 27.0264L28.8301 26.5869C28.9355 26.3408 29.0762 25.998 29.1377 25.8135L29.252 25.4883L31.5723 25.4883C32.8467 25.4883 33.8926 25.5146 33.8926 25.541C33.8926 25.5674 33.8135 25.8926 33.7168 26.2617ZM23.7764 13.5439L22.9941 13.2275L22.9941 10.9248C22.9941 9.45702 23.0293 8.61327 23.082 8.61327C23.2666 8.61327 24.4795 8.97362 25.1299 9.2285C25.9297 9.53612 26.1318 9.6328 27.0986 10.1777L27.8281 10.5908L26.1934 12.2256L24.5586 13.8691L23.7764 13.5439ZM26.3164 35.2529C25.4199 35.7012 23.4775 36.3867 23.082 36.3867C23.0293 36.3867 22.9941 35.543 22.9941 34.084L22.9941 31.7724L23.7676 31.456L24.5322 31.1308L26.1758 32.7656L27.8193 34.4004L27.3271 34.6992C27.0547 34.8574 26.5977 35.1123 26.3164 35.2529ZM16.2354 13.5439L15.4531 13.8603L13.8096 12.2168L12.1748 10.582L12.9043 10.1777C13.3086 9.95799 13.8359 9.67674 14.0732 9.5537C14.583 9.3076 16.209 8.7451 16.6924 8.65721L17.0176 8.59569L17.0176 10.9072L17.0176 13.2275L16.2354 13.5439ZM16.6924 36.3428C16.209 36.2549 14.583 35.6924 14.0732 35.4463C13.8359 35.3232 13.3086 35.042 12.9043 34.8223L12.1748 34.418L13.8096 32.7832L15.4531 31.1396L16.2354 31.456L17.0176 31.7724L17.0176 34.0928L17.0176 36.4043L16.6924 36.3428ZM10.7773 19.4062C10.7773 19.4853 10.25 19.5117 8.43945 19.5117L6.10156 19.5117L6.16309 19.1865C6.34766 18.1933 7.0332 16.5058 7.77148 15.2226L8.08789 14.6777L9.73144 16.3125L11.3662 17.9473L11.0762 18.6152C10.9092 18.9932 10.7773 19.3447 10.7773 19.4062ZM7.89453 29.9883C7.20898 28.8896 6.34766 26.8154 6.16309 25.8223L6.10156 25.4883L8.42187 25.4883L10.751 25.4883L10.8477 25.8223C10.9092 25.998 11.0498 26.3496 11.1641 26.5869L11.375 27.0264L9.74023 28.6699L8.09668 30.3223L7.89453 29.9883Z" fill="#330099" fill-opacity="0.79"/>
<path d="M26.6767 21.5772C26.1845 18.3868 23.7236 16.0753 20.4892 15.7764C19.2763 15.6622 17.6943 16.0401 16.5342 16.7169C15.7431 17.1827 14.6885 18.2374 14.2226 19.0284C12.6318 21.7266 13.0449 25.0489 15.2509 27.2549C17.8437 29.8477 21.9218 29.9005 24.6552 27.3868C26.123 26.0245 26.9843 23.5635 26.6767 21.5772ZM25.042 23.9063C24.3652 26.3848 21.79 28.0811 19.3027 27.6944C17.2549 27.378 15.6992 26.0772 15.0312 24.126C14.8291 23.5372 14.7851 23.2823 14.7851 22.5001C14.7851 21.7178 14.8291 21.463 15.0312 20.8741C15.6992 18.9229 17.2549 17.6221 19.3027 17.3057C22.0625 16.8839 24.8222 18.9757 25.2002 21.7969C25.2793 22.4122 25.2177 23.2823 25.042 23.9063Z" fill="#330099" fill-opacity="0.79"/>
<path d="M22.0361 21.5772C21.4033 20.1798 19.5136 19.837 18.4326 20.9268C17.0351 22.3243 18.0283 24.7149 20.0058 24.7149C21.2802 24.7149 22.2031 23.7833 22.2031 22.5001C22.2031 22.1309 22.1416 21.8057 22.0361 21.5772ZM20.5156 23.001C20.0937 23.4493 19.3027 23.1329 19.3027 22.5089C19.3027 22.0958 19.584 21.7969 19.997 21.7969C20.6299 21.7969 20.9551 22.5352 20.5156 23.001Z" fill="#330099" fill-opacity="0.79"/>
</svg>
