<svg width="24" height="24" viewBox="0 0 24 24" fill="none" xmlns="http://www.w3.org/2000/svg">
<path d="M11.001 9H13.001V14H11.001V9ZM11 15H13V17H11V15Z" fill="#F22F22"/>
<path d="M13.768 3.19994C13.42 2.54494 12.742 2.13794 12 2.13794C11.258 2.13794 10.58 2.54494 10.232 3.20094L2.89401 17.0639C2.73118 17.3684 2.65052 17.71 2.65999 18.0551C2.66946 18.4002 2.76873 18.7369 2.94801 19.0319C3.12471 19.3283 3.37565 19.5735 3.67606 19.7432C3.97647 19.913 4.31596 20.0015 4.66101 19.9999H19.339C20.047 19.9999 20.688 19.6379 21.053 19.0319C21.232 18.7368 21.3311 18.4001 21.3406 18.0551C21.35 17.71 21.2696 17.3685 21.107 17.0639L13.768 3.19994ZM4.66101 17.9999L12 4.13694L19.344 17.9999H4.66101Z" fill="#F22F22"/>
</svg>
