<svg xmlns="http://www.w3.org/2000/svg" width="57" height="57" viewBox="0 0 57 57" fill="none">
  <g clip-path="url(#clip0_85_1586)">
    <path d="M24.0056 4.03314C23.1548 4.12706 22.735 4.19335 22.1825 4.30937C17.2767 5.35351 13.1333 9.09363 11.5477 13.9166C11.3047 14.6513 11.0892 15.5684 10.9621 16.4579C10.8627 17.0932 10.8627 19.2257 10.9566 19.8278C11.1831 21.2476 11.498 22.3968 11.9676 23.4906C13.6029 27.3136 16.8789 30.3245 20.7903 31.6007C22.2654 32.0813 23.3979 32.2581 25.0276 32.2526C26.243 32.2526 26.5856 32.2194 27.7071 31.9984C31.2593 31.3023 34.668 28.9875 36.7563 25.8441C37.9827 24.0044 38.6733 22.1813 39.0434 19.8278C39.1374 19.2257 39.1374 17.0932 39.0379 16.4579C38.6015 13.4912 37.4358 10.9941 35.4801 8.80083C33.2261 6.27611 30.2649 4.66846 26.8949 4.13811C26.3812 4.05524 24.4199 3.98342 24.0056 4.03314ZM24.4476 5.464C24.4476 5.7789 24.4641 5.84519 24.6023 5.98883C24.6962 6.0938 24.8232 6.17114 24.9503 6.18771C25.1216 6.21534 25.1823 6.19324 25.337 6.05512C25.5083 5.90596 25.5249 5.86176 25.5414 5.49714L25.5635 5.1049L25.7403 5.127C25.8342 5.14357 26.0994 5.1712 26.3259 5.18777C27.243 5.25959 28.6076 5.60211 29.6627 6.02198C30.0881 6.19324 30.9997 6.62416 31.0715 6.68493C31.0826 6.69045 31.0384 6.81199 30.9721 6.94458C30.8339 7.23186 30.8284 7.32025 30.9389 7.53571C31.0439 7.74011 31.1765 7.81193 31.4361 7.81193C31.6405 7.81193 31.8449 7.65725 31.9941 7.39759C32.0493 7.29815 32.0604 7.29815 32.2648 7.42521C32.8725 7.80088 33.9664 8.75663 34.5962 9.46378C35.1044 10.0328 35.8281 10.972 35.8281 11.0659C35.8281 11.099 35.7563 11.1598 35.6679 11.2095C35.4469 11.32 35.3309 11.5023 35.3309 11.7233C35.3309 11.9664 35.4083 12.099 35.6072 12.204C35.8226 12.3144 35.911 12.3089 36.1983 12.1708C36.3309 12.1045 36.4524 12.0603 36.4579 12.0714C36.5242 12.1432 36.9331 13.0161 37.1319 13.5133C37.5463 14.5408 37.8778 15.8723 37.9551 16.817C37.9717 17.0435 37.9993 17.3086 38.0159 17.4026L38.038 17.5793L37.6457 17.6014C37.2866 17.618 37.2369 17.6346 37.0933 17.8003C36.9938 17.9108 36.9331 18.0379 36.9331 18.1428C36.9331 18.2478 36.9938 18.3749 37.0933 18.4854C37.2369 18.6511 37.2866 18.6677 37.6457 18.6843L38.038 18.7064L38.0159 18.8831C37.9993 18.9771 37.9717 19.2422 37.9551 19.4687C37.8833 20.3858 37.5408 21.7504 37.1209 22.8056C36.9496 23.231 36.5187 24.1425 36.4579 24.2143C36.4524 24.2254 36.3309 24.1812 36.1983 24.1149C35.911 23.9768 35.8226 23.9713 35.6072 24.0817C35.4028 24.1867 35.3309 24.3193 35.3309 24.579C35.3309 24.7834 35.4856 24.9878 35.7453 25.1369C35.8502 25.1977 35.8502 25.2032 35.6956 25.4408C34.9774 26.5291 33.3863 28.1202 32.298 28.8384C32.0604 28.9931 32.0549 28.9931 31.9941 28.8881C31.8449 28.6285 31.6405 28.4738 31.4361 28.4738C31.1765 28.4738 31.0439 28.5456 30.9389 28.75C30.8284 28.9655 30.8339 29.0538 30.9721 29.3411C31.0384 29.4737 31.0826 29.5952 31.0715 29.6008C30.9997 29.6615 30.0881 30.0925 29.6627 30.2637C28.6076 30.6836 27.243 31.0261 26.3259 31.0979C26.0994 31.1145 25.8342 31.1421 25.7403 31.1587L25.5635 31.1808L25.5414 30.7886C25.5249 30.4239 25.5083 30.3797 25.337 30.2306C25.1823 30.0925 25.1216 30.0704 24.9503 30.098C24.8232 30.1146 24.6962 30.1919 24.6023 30.2969C24.4697 30.4405 24.4476 30.5123 24.4476 30.8162V31.1697L24.0774 31.1421C23.0554 31.0758 21.619 30.7554 20.5859 30.3742C19.923 30.1256 18.923 29.656 18.923 29.5952C18.923 29.5676 18.9727 29.4516 19.0335 29.3301C19.1661 29.0704 19.1716 28.9599 19.0611 28.75C18.9562 28.5456 18.8236 28.4738 18.5639 28.4738C18.365 28.4738 18.2103 28.5898 17.9838 28.9102C17.901 29.0262 17.8954 29.0207 17.2933 28.5732C16.5088 27.9931 15.1497 26.6341 14.5697 25.8496C14.1222 25.2474 14.1166 25.2419 14.2327 25.159C14.5531 24.9325 14.6691 24.7778 14.6691 24.579C14.6691 24.3193 14.5973 24.1867 14.3929 24.0817C14.1829 23.9713 14.0725 23.9768 13.8128 24.1094C13.6913 24.1701 13.5752 24.2199 13.5476 24.2199C13.4868 24.2199 13.0173 23.2199 12.7687 22.557C12.3875 21.5239 12.067 20.0875 12.0007 19.0654L11.9731 18.6953H12.3322C12.6692 18.6953 12.7024 18.6843 12.8791 18.5075C13.1333 18.2533 13.1333 18.0324 12.8791 17.7782C12.7024 17.6014 12.6692 17.5904 12.3267 17.5904H11.9565L11.9842 17.4081C12.0007 17.3142 12.0284 17.0435 12.0449 16.817C12.1223 15.8723 12.4538 14.5408 12.8681 13.5133C13.067 13.0161 13.4758 12.1432 13.5421 12.0714C13.5476 12.0603 13.6692 12.1045 13.8017 12.1708C14.089 12.3089 14.1774 12.3144 14.3929 12.204C14.5918 12.099 14.6691 11.9664 14.6691 11.7233C14.6691 11.5023 14.5531 11.32 14.3321 11.2095C14.2437 11.1598 14.1719 11.099 14.1719 11.0659C14.1719 10.972 14.8956 10.0328 15.4039 9.46378C16.0337 8.75663 17.1275 7.80088 17.7352 7.42521C17.9396 7.29815 17.9507 7.29815 18.0059 7.39759C18.1551 7.65725 18.3595 7.81193 18.5639 7.81193C18.8236 7.81193 18.9562 7.74011 19.0611 7.53571C19.1716 7.32025 19.1661 7.23186 19.028 6.94458C18.9617 6.81199 18.9175 6.69045 18.9285 6.68493C19.0004 6.62416 19.9119 6.19324 20.3373 6.02198C21.4201 5.59106 22.7239 5.27064 23.7846 5.1712C24.0719 5.14357 24.3426 5.11595 24.3813 5.11043C24.4255 5.1049 24.4476 5.20987 24.4476 5.464Z" fill="#330099" />
    <path d="M24.8011 7.37001C24.6244 7.44183 24.4476 7.69596 24.4476 7.87275C24.4476 8.09373 24.7017 8.35891 24.9503 8.39758C25.1216 8.4252 25.1823 8.4031 25.337 8.26499C25.4917 8.12688 25.5249 8.06058 25.5249 7.86722C25.5249 7.67386 25.4917 7.60757 25.3425 7.47498C25.1602 7.31477 25.0111 7.28162 24.8011 7.37001Z" fill="#330099" />
    <path d="M26.8287 7.74564C26.7016 7.87271 26.6574 7.96663 26.6574 8.11579C26.6574 8.42516 26.8618 8.59643 27.4308 8.74559C29.707 9.35881 31.8339 10.9665 33.193 13.0989C33.7288 13.9387 34.226 15.0823 34.447 15.9993C34.5796 16.5297 34.7233 17.5904 34.7233 18.0158C34.7233 18.2533 34.7509 18.3362 34.8779 18.4743C34.9719 18.5793 35.0989 18.6566 35.226 18.6732C35.3973 18.7008 35.458 18.6787 35.6127 18.5406L35.8005 18.3694L35.7895 17.7617C35.7398 14.4746 33.7786 11.0935 30.7456 9.06049C29.7622 8.39754 28.0496 7.67383 27.3093 7.60753C27.0165 7.57991 26.9834 7.58543 26.8287 7.74564Z" fill="#330099" />
    <path d="M24.0608 9.91675C20.9671 10.2593 18.2656 12.4028 17.2104 15.3419C16.5695 17.1318 16.5695 19.1538 17.2104 20.9438C18.0335 23.2364 19.9064 25.1093 22.199 25.9324C24.2708 26.6782 26.7016 26.5457 28.602 25.5954C31.7289 24.032 33.5575 20.8167 33.2426 17.4357C33.0879 15.7783 32.5576 14.4137 31.5687 13.1155C29.8285 10.8228 26.9446 9.59632 24.0608 9.91675ZM25.5635 12.8503L25.5801 14.7452L25.7292 15.027C25.9171 15.3805 26.3093 15.7341 26.6408 15.8446C26.9557 15.9551 27.4584 15.9606 27.7402 15.8556C27.8617 15.817 28.6131 15.3971 29.4196 14.922L30.8836 14.0657L30.9776 14.1817C31.0881 14.3198 31.4748 15.0049 31.4527 15.0214C31.4416 15.027 30.7566 15.4302 29.9279 15.9109C29.0937 16.3915 28.3258 16.8777 28.2208 16.9826C27.591 17.6014 27.591 18.6842 28.2208 19.303C28.3258 19.4079 29.0937 19.8941 29.9279 20.3747C30.7566 20.8554 31.4416 21.2587 31.4527 21.2642C31.4748 21.2808 31.0881 21.9658 30.9776 22.1039L30.8836 22.2199L29.4196 21.3636C28.6131 20.8885 27.8617 20.4686 27.7402 20.43C27.4584 20.325 26.9557 20.3305 26.6408 20.441C26.3093 20.5515 25.9171 20.9051 25.7292 21.2587L25.5801 21.5404L25.5635 23.4298L25.5469 25.3247H25H24.4531L24.4365 23.4298L24.4199 21.5404L24.2708 21.2587C24.0829 20.9051 23.6907 20.5515 23.3592 20.441C23.0443 20.3305 22.5416 20.325 22.2598 20.43C22.1383 20.4686 21.3869 20.8885 20.5804 21.3636L19.1163 22.2199L19.0224 22.1039C18.9119 21.9658 18.5252 21.2808 18.5473 21.2642C18.5584 21.2587 19.2434 20.8554 20.0721 20.3747C20.9063 19.8941 21.6742 19.4079 21.7792 19.303C22.409 18.6842 22.409 17.6014 21.7792 16.9826C21.6742 16.8777 20.9063 16.3915 20.0721 15.9109C19.2434 15.4302 18.5584 15.027 18.5473 15.0214C18.5252 15.0049 18.9119 14.3198 19.0224 14.1817L19.1163 14.0657L20.5804 14.922C21.3869 15.3971 22.1383 15.817 22.2598 15.8556C22.5416 15.9606 23.0443 15.9551 23.3592 15.8446C23.6907 15.7341 24.0829 15.3805 24.2708 15.027L24.4199 14.7452L24.4365 12.8503L24.4531 10.9609H25H25.5469L25.5635 12.8503ZM23.3316 12.8724L23.315 14.5629L23.1603 14.6955C22.862 14.9496 22.7405 14.9054 21.2046 14.0104L19.8014 13.1983L20.1771 12.8448C20.8455 12.215 21.7571 11.6736 22.7018 11.3476C23.42 11.0935 23.3482 10.9222 23.3316 12.8724ZM27.2761 11.3421C28.2319 11.6625 29.1434 12.2039 29.8229 12.8448L30.1986 13.1983L28.7954 14.0104C27.2595 14.9054 27.138 14.9496 26.8397 14.6955L26.685 14.5629L26.6684 12.8724C26.6574 11.4802 26.6684 11.1819 26.7292 11.1819C26.7679 11.1819 27.0165 11.2537 27.2761 11.3421ZM19.5804 16.8998C20.3317 17.3417 20.9947 17.7506 21.0499 17.8113C21.1825 17.955 21.1825 18.3306 21.0499 18.4743C20.945 18.5903 18.2435 20.1869 18.1551 20.1869C18.0335 20.1869 17.8236 18.8941 17.8236 18.1428C17.8236 17.3915 18.0335 16.0987 18.1551 16.0987C18.1827 16.0987 18.8235 16.4578 19.5804 16.8998ZM31.9886 16.4965C32.2427 17.618 32.2427 18.6676 31.9886 19.7891C31.9388 20.0101 31.8725 20.1869 31.8449 20.1869C31.7565 20.1869 29.055 18.5903 28.9501 18.4743C28.8119 18.3196 28.8175 17.9439 28.9666 17.8003C29.0992 17.6677 31.7344 16.1042 31.8339 16.1042C31.867 16.0987 31.9388 16.2755 31.9886 16.4965ZM23.1603 21.5901L23.315 21.7227L23.3316 23.4132C23.3426 24.8054 23.3316 25.1037 23.2708 25.1037C23.1437 25.1037 22.2653 24.7888 21.8897 24.6121C21.3593 24.3579 20.6024 23.8386 20.1771 23.4409L19.8014 23.0873L21.1991 22.2752C22.7349 21.3802 22.862 21.336 23.1603 21.5901ZM28.7954 22.2696L30.1986 23.0873L29.8229 23.4409C29.3975 23.8386 28.6407 24.3579 28.1103 24.6121C27.7346 24.7888 26.8562 25.1037 26.7292 25.1037C26.6684 25.1037 26.6574 24.8054 26.6684 23.4132L26.685 21.7227L26.8397 21.5901C27.138 21.336 27.2595 21.3802 28.7954 22.2696Z" fill="#330099" />
    <path d="M24.4752 16.5795C23.3095 16.9994 22.9725 18.4358 23.8399 19.3031C24.1769 19.6401 24.4973 19.7727 25 19.7727C25.5028 19.7727 25.8232 19.6401 26.1602 19.3031C26.4972 18.9661 26.6298 18.6457 26.6298 18.143C26.6298 17.6402 26.4972 17.3198 26.1602 16.9828C25.7182 16.5408 25.0387 16.3806 24.4752 16.5795ZM25.3867 17.7839C25.5801 17.9827 25.5746 18.3087 25.3702 18.5131C25.0387 18.8501 24.4752 18.6181 24.4752 18.1485C24.4752 17.6568 25.0332 17.4303 25.3867 17.7839Z" fill="#330099" />
  </g>
  <g clip-path="url(#clip1_85_1586)">
    <path d="M7.94141 22.1364C7.58047 22.231 7.06484 22.4802 6.94453 22.6263C6.86719 22.7208 6.79844 22.7122 6.49766 22.5661C5.72422 22.1708 4.57266 22.2997 3.86797 22.8497C3.67031 23.013 3.4125 23.3481 3.25781 23.6403C3.03437 24.0786 3 24.2419 3 24.8349C3 25.4536 3.14609 26.0466 4.46953 30.945C5.44062 34.52 6.04219 36.5739 6.22266 36.9692C6.56641 37.6911 7.21953 38.4474 7.88984 38.8942C8.15625 39.0661 8.98984 39.556 9.74609 39.977C10.5023 40.3895 11.293 40.845 11.5078 40.9825C12.4617 41.5841 13.1578 42.581 13.2781 43.5177L13.3297 43.9646L13.0031 44.0161C12.2469 44.1536 11.7656 44.7122 11.7656 45.4513C11.7656 45.9411 12.1781 51.5614 12.2469 51.9911C12.2727 52.1716 12.393 52.4294 12.5133 52.5755C12.9258 53.0567 13.0461 53.0825 15.0742 53.0825C16.8102 53.0825 16.9305 53.0739 17.0937 52.9106C17.3258 52.6786 17.3258 52.1974 17.0937 51.9653C16.9305 51.8021 16.8102 51.7935 15.2891 51.7935C14.0602 51.7935 13.6391 51.7677 13.6133 51.6903C13.5703 51.5786 13.1406 45.9755 13.1406 45.5888V45.3911L17.8242 45.0474C20.3937 44.8669 22.525 44.738 22.5508 44.7638C22.6195 44.8325 23.118 51.6302 23.0578 51.7161C23.032 51.7591 22.1727 51.7935 21.1414 51.7935C19.3969 51.7935 19.2594 51.8021 19.1219 51.9567C18.9242 52.1802 18.9242 52.6958 19.1219 52.9192C19.268 53.0825 19.3711 53.0911 21.468 53.0653C23.9602 53.0396 23.9687 53.031 24.3211 52.3263L24.5102 51.9481L24.2266 48.1583C23.9258 43.9817 23.9086 43.9044 23.3414 43.552C23.1437 43.4317 22.9031 43.3716 22.6023 43.3716C22.3617 43.3716 22.1641 43.3544 22.1641 43.3372C22.1641 43.0536 21.7687 40.7075 21.6055 40.02C21.193 38.2841 20.8406 37.4419 20.1102 36.4106C19.3969 35.388 18.2109 33.9356 17.8328 33.6005C17.1195 32.9731 12.8141 30.5411 12.1609 30.395C11.6883 30.2919 11.0781 30.352 10.7 30.5411L10.4508 30.67L10.5109 30.3778C10.5367 30.2145 10.657 28.8224 10.7687 27.2927C10.9148 25.3247 10.9492 24.3794 10.8977 24.0786C10.7516 23.2966 10.2187 22.6349 9.48828 22.3083C9.07578 22.1278 8.30234 22.0419 7.94141 22.1364ZM9.16172 23.7435C9.54844 24.0356 9.6 24.3966 9.47109 26.1239C9.41094 26.9231 9.35937 27.6106 9.34219 27.6536C9.325 27.6966 8.95547 26.863 8.50859 25.7974C7.64062 23.7005 7.63203 23.6833 8.19062 23.5286C8.53437 23.4341 8.81797 23.4942 9.16172 23.7435ZM6.13672 24.0528C6.32578 24.2505 6.85 25.4278 7.93281 28.0231C9.43672 31.6583 9.45391 31.7099 9.39375 32.1481C9.26484 32.9731 9.40234 33.5145 9.85781 33.97C10.1586 34.2708 13.5102 36.8489 13.8109 37.0036C14.4039 37.3216 15.0312 36.5653 14.6445 36.0067C14.5758 35.9122 13.7336 35.2333 12.7797 34.5028C11.8172 33.7638 10.975 33.0935 10.8891 33.0075C10.6227 32.6981 10.657 32.3802 11.0008 32.045C11.3445 31.7099 11.6023 31.6497 11.9977 31.813C12.4961 32.0278 15.6844 33.8153 16.3719 34.2708C17.025 34.7091 17.3602 35.0614 18.4516 36.5138C19.5859 38.0091 19.8781 38.6364 20.282 40.4497C20.4539 41.2489 20.7977 43.3888 20.7547 43.4317C20.7375 43.4489 15.0055 43.8872 14.782 43.8872C14.7391 43.8872 14.6875 43.6552 14.6531 43.3716C14.5414 42.4091 14.2062 41.6614 13.5445 40.8966C12.9258 40.1833 12.5648 39.9427 9.53125 38.2583C8.51719 37.6911 7.78672 37.0294 7.47734 36.3935C7.18516 35.7833 4.375 25.3677 4.375 24.895C4.375 24.4052 4.5125 24.1388 4.89062 23.881C5.31172 23.5974 5.78437 23.6661 6.13672 24.0528Z" fill="#330099" />
    <path d="M40.993 22.1536C40.5203 22.2481 39.9531 22.5747 39.6524 22.9356C39.2313 23.4341 39.0938 23.838 39.0938 24.6372C39.0938 25.3677 39.3774 29.4067 39.4891 30.2317L39.5492 30.67L39.2571 30.5153C39.0594 30.4208 38.7586 30.3692 38.3633 30.3606C37.8563 30.3606 37.6758 30.4036 37.2375 30.6185C36.1117 31.1856 33.0438 32.9474 32.5196 33.3341C31.7375 33.9099 29.8125 36.3419 29.2196 37.5106C28.7813 38.3786 28.2141 40.57 28.0078 42.2544C27.8617 43.4231 27.8875 43.3716 27.4406 43.3716C27.2258 43.3716 26.925 43.4317 26.7789 43.5005C26.461 43.6552 26.143 44.0849 26.0742 44.4458C26.0485 44.5919 25.911 46.3021 25.7735 48.2528C25.5844 50.8739 25.5328 51.888 25.6016 52.1286C25.6875 52.4466 25.9969 52.8075 26.3492 52.988C26.4781 53.0567 28.0508 53.0825 31.686 53.0825H36.8336L37.1172 52.8849C37.5813 52.5755 37.7274 52.3005 37.8133 51.613C37.8992 50.8224 37.9078 49.7224 37.8219 49.5935C37.736 49.456 37.4094 49.3013 37.2117 49.3013C37.1172 49.3013 36.9367 49.3872 36.8164 49.4989C36.6016 49.6794 36.5844 49.7653 36.5071 50.6677C36.4641 51.2005 36.4125 51.6731 36.3781 51.7161C36.3266 51.8106 27.0024 51.8192 26.9422 51.7247C26.8992 51.6474 27.3977 44.8153 27.4578 44.7552C27.475 44.7294 29.6063 44.8669 32.193 45.0474L36.8852 45.3911L36.825 46.3021C36.7563 47.3505 36.8422 47.5481 37.375 47.6341C38.0196 47.7372 38.2172 47.2903 38.2258 45.6919C38.2344 45.1075 38.2 44.9099 38.0625 44.6778C37.8563 44.3341 37.4696 44.0935 37.0227 44.0247C36.636 43.9646 36.6274 43.913 36.8164 43.1653C37.143 41.9278 37.736 41.3692 40.2711 39.977C41.9125 39.0747 42.2219 38.8685 42.7977 38.3013C43.8031 37.3044 43.8461 37.1927 45.5391 30.9536L47.0172 25.5395L46.9828 24.7661C46.9313 23.6317 46.5102 22.9528 45.6336 22.5489C45.075 22.2997 44.0781 22.2911 43.5883 22.5403L43.2274 22.7208L42.8578 22.4802C42.6516 22.3427 42.2735 22.1966 42.0242 22.145C41.5086 22.0505 41.5172 22.0505 40.993 22.1536ZM42.1102 23.6833L42.3336 23.8208L41.5086 25.7974L40.6836 27.7739L40.6235 27.2583C40.5977 26.9747 40.5375 26.2013 40.5031 25.5395C40.4516 24.5169 40.4688 24.2849 40.5805 24.07C40.8813 23.477 41.5258 23.3138 42.1102 23.6833ZM45.0235 23.8208C45.4446 24.0442 45.625 24.345 45.625 24.8778C45.625 25.488 42.9008 35.6028 42.5227 36.3849C42.1531 37.1497 41.5172 37.6997 40.0305 38.5075C38.0196 39.6161 37.3578 40.0286 36.868 40.4841C36.0258 41.2747 35.493 42.3231 35.3469 43.4317C35.3125 43.681 35.261 43.8872 35.218 43.8872C35.0289 43.8872 29.2625 43.4489 29.2453 43.4317C29.211 43.3888 29.5547 41.2747 29.7266 40.5356C30.2078 38.3786 30.4742 37.8716 32.193 35.6974C32.8719 34.838 33.1125 34.6145 33.7055 34.2278C34.7797 33.5317 37.9852 31.7786 38.2774 31.727C38.8016 31.6239 39.4547 32.3286 39.2828 32.8099C39.2399 32.913 38.3461 33.6606 37.2891 34.4685C35.3039 35.981 35.1406 36.1528 35.261 36.6169C35.3383 36.9435 35.8281 37.1669 36.1375 37.0294C36.2578 36.9692 37.2203 36.2645 38.286 35.4653C40.3055 33.927 40.5547 33.6606 40.675 32.9474C40.7094 32.7669 40.6922 32.4145 40.6406 32.1739L40.5375 31.727L42.093 27.9974C42.9438 25.9435 43.7344 24.1731 43.8375 24.0528C44.1899 23.6833 44.5938 23.5974 45.0235 23.8208Z" fill="#330099" />
  </g>
  <defs>
    <clipPath id="clip0_85_1586">
      <rect width="28.2857" height="28.2857" fill="white" transform="translate(10.8572 4)" />
    </clipPath>
    <clipPath id="clip1_85_1586">
      <rect width="44" height="44" fill="white" transform="translate(3 10.2856)" />
    </clipPath>
  </defs>
</svg>