<svg width="58" height="57" viewBox="0 0 58 57" fill="none" xmlns="http://www.w3.org/2000/svg">
<g clip-path="url(#clip0_107_1588)">
<g clip-path="url(#clip1_107_1588)">
<g clip-path="url(#clip2_107_1588)">
<path d="M16.0342 10.088C15.9287 10.132 15.8057 10.2462 15.7529 10.3429C15.6826 10.4571 15.6562 13.0763 15.6562 18.6925V26.8751H11.9824C7.7373 26.8751 7.7373 26.8751 7.10449 27.5782C6.89355 27.8068 6.67383 28.1583 6.62109 28.3517C6.47168 28.8439 6.47168 53.0226 6.62109 53.5148C6.75293 53.963 7.22754 54.5167 7.69336 54.7628L8.05371 54.9562L16.0957 54.9825C22.002 55.0001 24.2607 54.9825 24.6123 54.9034C25.0078 54.8243 25.1748 54.7277 25.5439 54.3497C26.0449 53.8488 26.2031 53.4445 26.2031 52.6798V52.1876H35.0361C41.3115 52.1876 43.9219 52.1613 44.0713 52.0909C44.1943 52.0382 44.335 51.8976 44.3877 51.7745C44.458 51.6251 44.4844 46.5626 44.4844 33.546C44.4844 18.0685 44.4668 15.4933 44.3613 15.2911C44.291 15.1593 43.1045 13.9288 41.7246 12.5489L39.2109 10.0441L27.7148 10.0265C21.2021 10.0177 16.1484 10.0441 16.0342 10.088ZM38.1562 13.6476V15.8976L38.376 16.1085L38.5869 16.3282H40.8369H43.0781V33.5548V50.7814H34.6406H26.2031V49.0236V47.2657H29.499H32.8037L33.0146 47.046C33.3047 46.7648 33.3047 46.3605 33.0146 46.0792L32.8037 45.8595H29.499H26.2031V44.8048V43.7501H29.499H32.8037L33.0146 43.5304C33.3047 43.2491 33.3047 42.8448 33.0146 42.5636L32.8037 42.3439H29.499H26.2031V41.2892V40.2345H29.499H32.8037L33.0146 40.0148C33.3047 39.7335 33.3047 39.3292 33.0146 39.048L32.8037 38.8282H29.499H26.2031V37.7736V36.7189H29.499H32.8037L33.0146 36.4991C33.3047 36.2179 33.3047 35.8136 33.0146 35.5323L32.8037 35.3126H29.499H26.2031V34.2579V33.2032H29.499H32.8037L33.0146 32.9835C33.3047 32.7023 33.3047 32.298 33.0146 32.0167L32.8037 31.797H29.499H26.2031V30.7423V29.6876H29.499H32.8037L33.0146 29.4679C33.3047 29.1866 33.3047 28.7823 33.0146 28.5011L32.8037 28.2814H29.4287H26.0449L25.9395 28.0177C25.79 27.6486 25.1484 27.1036 24.7266 26.9806C24.4893 26.9103 23.2764 26.8751 20.7188 26.8751H17.0625V19.1407V11.4064H27.6094H38.1562V13.6476ZM40.8369 13.6915L42.0674 14.922H40.8105H39.5625V13.6915C39.5625 13.0148 39.5713 12.4611 39.5889 12.4611C39.5977 12.4611 40.1602 13.0148 40.8369 13.6915ZM24.5771 28.5011L24.7969 28.712V39.5314V50.3507L24.5771 50.5616L24.3662 50.7814H16.4473C8.03613 50.7814 8.13281 50.7814 7.97461 50.3859C7.94824 50.3068 7.92188 45.3937 7.92188 39.4786V28.712L8.1416 28.5011L8.35254 28.2814H16.3594H24.3662L24.5771 28.5011ZM24.7969 52.6534C24.7969 53.0753 24.7617 53.1984 24.5771 53.3741L24.3662 53.5939H16.4473C9.6709 53.5939 8.49316 53.5763 8.28223 53.462C7.97461 53.3038 7.92188 53.1808 7.92188 52.6007V52.1437H16.3594H24.7969V52.6534Z" fill="#330099"/>
<path d="M25.7725 15.0537C24.5771 15.3262 24.0938 15.6426 24.0938 16.1436C24.0938 16.3193 23.9707 16.46 23.5137 16.8027C22.5029 17.5498 21.6504 18.877 21.4307 20.0283C21.3516 20.4326 21.2988 20.5469 21.167 20.5469C21.0791 20.5469 20.9121 20.6436 20.7979 20.7666C20.5869 20.9688 20.5781 21.0127 20.5781 22.3047C20.5781 23.5967 20.5869 23.6406 20.7979 23.8428L21.0088 24.0625H26.8887C32.5488 24.0625 32.7861 24.0537 32.9795 23.8955C33.1816 23.7373 33.1904 23.667 33.2168 22.4805C33.252 21.0479 33.1816 20.7842 32.7598 20.626C32.5049 20.5381 32.4609 20.4678 32.373 20.0283C32.1357 18.877 31.3096 17.6113 30.2812 16.8115C29.8506 16.4688 29.7188 16.3193 29.7188 16.1436C29.7188 15.7305 29.4199 15.4756 28.6377 15.2207C27.7412 14.9395 26.5811 14.8691 25.7725 15.0537ZM27.8291 16.4512L28.2686 16.5479L28.3125 17.6729C28.3564 18.7275 28.374 18.8154 28.5674 18.9736C29.0068 19.334 29.5957 19.0967 29.6836 18.5166L29.7451 18.165L29.9561 18.3584C30.2725 18.666 30.668 19.3252 30.8613 19.8877C30.958 20.1689 31.0371 20.4326 31.0371 20.4766C31.0371 20.5117 29.1738 20.5469 26.8975 20.5469H22.7578L22.8105 20.2568C22.8984 19.791 23.4434 18.7627 23.7773 18.4463L24.0938 18.1387V18.4199C24.0938 18.7979 24.4277 19.1406 24.7969 19.1406C24.9639 19.1406 25.1484 19.0615 25.2803 18.9209C25.4912 18.7188 25.5 18.6572 25.5 17.6553C25.5 17.0576 25.5352 16.583 25.5879 16.5479C25.9131 16.3457 27.1523 16.293 27.8291 16.4512ZM31.8281 22.3047V22.6562H26.9062H21.9844V22.3047V21.9531H26.9062H31.8281V22.3047Z" fill="#330099"/>
<path d="M36.2666 28.501C36.126 28.6328 36.0469 28.8174 36.0469 28.9844C36.0469 29.1514 36.126 29.3359 36.2666 29.4678C36.4688 29.6787 36.5127 29.6875 37.8047 29.6875C39.0967 29.6875 39.1406 29.6787 39.3428 29.4678C39.4834 29.3359 39.5625 29.1514 39.5625 28.9844C39.5625 28.8174 39.4834 28.6328 39.3428 28.501C39.1406 28.29 39.0967 28.2812 37.8047 28.2812C36.5127 28.2812 36.4688 28.29 36.2666 28.501Z" fill="#330099"/>
<path d="M35.5635 32.0166C35.4229 32.1484 35.3438 32.333 35.3438 32.5C35.3438 32.667 35.4229 32.8516 35.5635 32.9834C35.7744 33.2031 35.792 33.2031 37.4531 33.2031C39.1143 33.2031 39.1318 33.2031 39.3428 32.9834C39.4834 32.8516 39.5625 32.667 39.5625 32.5C39.5625 32.333 39.4834 32.1484 39.3428 32.0166C39.1318 31.7969 39.1143 31.7969 37.4531 31.7969C35.792 31.7969 35.7744 31.7969 35.5635 32.0166Z" fill="#330099"/>
<path d="M36.2666 35.5322C36.126 35.6641 36.0469 35.8486 36.0469 36.0156C36.0469 36.1826 36.126 36.3672 36.2666 36.499C36.4688 36.71 36.5127 36.7188 37.8047 36.7188C39.0967 36.7188 39.1406 36.71 39.3428 36.499C39.4834 36.3672 39.5625 36.1826 39.5625 36.0156C39.5625 35.8486 39.4834 35.6641 39.3428 35.5322C39.1406 35.3213 39.0967 35.3125 37.8047 35.3125C36.5127 35.3125 36.4688 35.3213 36.2666 35.5322Z" fill="#330099"/>
<path d="M36.9697 39.0479C36.8291 39.1797 36.75 39.3643 36.75 39.5312C36.75 39.6982 36.8291 39.8828 36.9697 40.0146C37.1719 40.2256 37.2422 40.2344 38.1562 40.2344C39.0703 40.2344 39.1406 40.2256 39.3428 40.0146C39.4834 39.8828 39.5625 39.6982 39.5625 39.5312C39.5625 39.3643 39.4834 39.1797 39.3428 39.0479C39.1406 38.8369 39.0703 38.8281 38.1562 38.8281C37.2422 38.8281 37.1719 38.8369 36.9697 39.0479Z" fill="#330099"/>
<path d="M36.2666 42.5635C36.126 42.6953 36.0469 42.8799 36.0469 43.0469C36.0469 43.2139 36.126 43.3984 36.2666 43.5303C36.4688 43.7412 36.5127 43.75 37.8047 43.75C39.0967 43.75 39.1406 43.7412 39.3428 43.5303C39.4834 43.3984 39.5625 43.2139 39.5625 43.0469C39.5625 42.8799 39.4834 42.6953 39.3428 42.5635C39.1406 42.3525 39.0967 42.3438 37.8047 42.3438C36.5127 42.3438 36.4688 42.3525 36.2666 42.5635Z" fill="#330099"/>
<path d="M35.5635 46.0791C35.4229 46.2109 35.3438 46.3955 35.3438 46.5625C35.3438 46.7295 35.4229 46.9141 35.5635 47.0459C35.7744 47.2656 35.792 47.2656 37.4531 47.2656C39.1143 47.2656 39.1318 47.2656 39.3428 47.0459C39.4834 46.9141 39.5625 46.7295 39.5625 46.5625C39.5625 46.3955 39.4834 46.2109 39.3428 46.0791C39.1318 45.8594 39.1143 45.8594 37.4531 45.8594C35.792 45.8594 35.7744 45.8594 35.5635 46.0791Z" fill="#330099"/>
<path d="M9.54785 29.9072C9.32812 30.1182 9.32812 30.1357 9.32812 31.7793C9.32812 33.291 9.3457 33.4668 9.49512 33.6514L9.66211 33.8623L16.3066 33.8887L22.96 33.9062L23.1709 33.6953C23.3906 33.4756 23.3906 33.4668 23.3906 31.7969C23.3906 30.1357 23.3906 30.1182 23.1709 29.9072L22.96 29.6875H16.3594H9.75879L9.54785 29.9072ZM21.9844 31.7969V32.5H16.3594H10.7344V31.7969V31.0938H16.3594H21.9844V31.7969Z" fill="#330099"/>
<path d="M10.6729 35.4619C10.2159 35.6201 9.57426 36.2969 9.43363 36.7891C9.2139 37.5098 9.35453 38.1865 9.83793 38.7403C10.3828 39.3906 11.1563 39.6367 11.9737 39.4434C12.5625 39.3028 13.2745 38.6348 13.4414 38.0723C13.9424 36.3584 12.3516 34.8643 10.6729 35.4619ZM11.9209 36.9385C12.0616 37.0703 12.1407 37.2549 12.1407 37.4219C12.1407 37.7383 11.8067 38.125 11.5254 38.125C11.2705 38.125 10.8575 37.8965 10.7871 37.7295C10.6026 37.2461 10.9453 36.7188 11.4375 36.7188C11.6045 36.7188 11.7891 36.7979 11.9209 36.9385Z" fill="#330099"/>
<path d="M15.5948 35.4619C15.1377 35.6201 14.4961 36.2969 14.3555 36.7891C14.1358 37.5098 14.2764 38.1865 14.7598 38.7403C15.3047 39.3906 16.0782 39.6367 16.8955 39.4434C17.4844 39.3028 18.1963 38.6348 18.3633 38.0723C18.8643 36.3584 17.2735 34.8643 15.5948 35.4619ZM16.8428 36.9385C16.9834 37.0703 17.0625 37.2549 17.0625 37.4219C17.0625 37.7383 16.7286 38.125 16.4473 38.125C16.1924 38.125 15.7793 37.8965 15.709 37.7295C15.5245 37.2461 15.8672 36.7188 16.3594 36.7188C16.5264 36.7188 16.711 36.7979 16.8428 36.9385Z" fill="#330099"/>
<path d="M20.5166 35.4619C20.0596 35.6201 19.418 36.2969 19.2774 36.7891C19.0577 37.5098 19.1983 38.1865 19.6817 38.7403C20.2266 39.3906 21 39.6367 21.8174 39.4434C22.4063 39.3028 23.1182 38.6348 23.2852 38.0723C23.7862 36.3584 22.1953 34.8643 20.5166 35.4619ZM21.7647 36.9385C21.9053 37.0703 21.9844 37.2549 21.9844 37.4219C21.9844 37.7383 21.6504 38.125 21.3692 38.125C21.1143 38.125 20.7012 37.8965 20.6309 37.7295C20.4463 37.2461 20.7891 36.7188 21.2813 36.7188C21.4483 36.7188 21.6328 36.7979 21.7647 36.9385Z" fill="#330099"/>
<path d="M10.6729 40.3838C10.2159 40.542 9.57426 41.2188 9.43363 41.711C9.2139 42.4317 9.35453 43.1084 9.83793 43.6621C10.3828 44.3125 11.1563 44.5586 11.9737 44.3653C12.5625 44.2246 13.2745 43.5567 13.4414 42.9942C13.9424 41.2803 12.3516 39.7862 10.6729 40.3838ZM11.9209 41.8604C12.0616 41.9922 12.1407 42.1768 12.1407 42.3438C12.1407 42.6602 11.8067 43.0469 11.5254 43.0469C11.2705 43.0469 10.8575 42.8184 10.7871 42.6514C10.6026 42.168 10.9453 41.6406 11.4375 41.6406C11.6045 41.6406 11.7891 41.7197 11.9209 41.8604Z" fill="#330099"/>
<path d="M15.5948 40.3838C15.1377 40.542 14.4961 41.2188 14.3555 41.711C14.1358 42.4317 14.2764 43.1084 14.7598 43.6621C15.3047 44.3125 16.0782 44.5586 16.8955 44.3653C17.4844 44.2246 18.1963 43.5567 18.3633 42.9942C18.8643 41.2803 17.2735 39.7862 15.5948 40.3838ZM16.8428 41.8604C16.9834 41.9922 17.0625 42.1768 17.0625 42.3438C17.0625 42.6602 16.7286 43.0469 16.4473 43.0469C16.1924 43.0469 15.7793 42.8184 15.709 42.6514C15.5245 42.168 15.8672 41.6406 16.3594 41.6406C16.5264 41.6406 16.711 41.7197 16.8428 41.8604Z" fill="#330099"/>
<path d="M20.5166 40.3838C20.0596 40.542 19.418 41.2188 19.2774 41.711C19.0577 42.4317 19.1983 43.1084 19.6817 43.6621C20.2266 44.3125 21 44.5586 21.8174 44.3653C22.4063 44.2246 23.1182 43.5567 23.2852 42.9942C23.7862 41.2803 22.1953 39.7862 20.5166 40.3838ZM21.7647 41.8604C21.9053 41.9922 21.9844 42.1768 21.9844 42.3438C21.9844 42.6602 21.6504 43.0469 21.3692 43.0469C21.1143 43.0469 20.7012 42.8184 20.6309 42.6514C20.4463 42.168 20.7891 41.6406 21.2813 41.6406C21.4483 41.6406 21.6328 41.7197 21.7647 41.8604Z" fill="#330099"/>
<path d="M10.6729 45.3057C10.2159 45.4639 9.57426 46.1406 9.43363 46.6328C9.2139 47.3535 9.35453 48.0303 9.83793 48.584C10.3828 49.2344 11.1563 49.4805 11.9737 49.2871C12.5625 49.1465 13.2745 48.4785 13.4414 47.916C13.9424 46.2022 12.3516 44.708 10.6729 45.3057ZM11.9209 46.7822C12.0616 46.9141 12.1407 47.0987 12.1407 47.2656C12.1407 47.5821 11.8067 47.9688 11.5254 47.9688C11.2705 47.9688 10.8575 47.7403 10.7871 47.5733C10.6026 47.0899 10.9453 46.5625 11.4375 46.5625C11.6045 46.5625 11.7891 46.6416 11.9209 46.7822Z" fill="#330099"/>
<path d="M15.5948 45.3057C15.1377 45.4639 14.4961 46.1406 14.3555 46.6328C14.1358 47.3535 14.2764 48.0303 14.7598 48.584C15.3047 49.2344 16.0782 49.4805 16.8955 49.2871C17.4844 49.1465 18.1963 48.4785 18.3633 47.916C18.8643 46.2022 17.2735 44.708 15.5948 45.3057ZM16.8428 46.7822C16.9834 46.9141 17.0625 47.0987 17.0625 47.2656C17.0625 47.5821 16.7286 47.9688 16.4473 47.9688C16.1924 47.9688 15.7793 47.7403 15.709 47.5733C15.5245 47.0899 15.8672 46.5625 16.3594 46.5625C16.5264 46.5625 16.711 46.6416 16.8428 46.7822Z" fill="#330099"/>
<path d="M20.5166 45.3057C20.0596 45.4639 19.418 46.1406 19.2774 46.6328C19.0577 47.3535 19.1983 48.0303 19.6817 48.584C20.2266 49.2344 21 49.4805 21.8174 49.2871C22.4063 49.1465 23.1182 48.4785 23.2852 47.916C23.7862 46.2022 22.1953 44.708 20.5166 45.3057ZM21.7647 46.7822C21.9053 46.9141 21.9844 47.0987 21.9844 47.2656C21.9844 47.5821 21.6504 47.9688 21.3692 47.9688C21.1143 47.9688 20.7012 47.7403 20.6309 47.5733C20.4463 47.0899 20.7891 46.5625 21.2813 46.5625C21.4483 46.5625 21.6328 46.6416 21.7647 46.7822Z" fill="#330099"/>
</g>
</g>
</g>
<defs>
<clipPath id="clip0_107_1588">
<rect width="57" height="57" fill="white" transform="translate(0.199951)"/>
</clipPath>
<clipPath id="clip1_107_1588">
<rect width="57" height="57" fill="white" transform="translate(-0.800049 -2)"/>
</clipPath>
<clipPath id="clip2_107_1588">
<rect width="57" height="57" fill="white" transform="translate(-6.80005 -2)"/>
</clipPath>
</defs>
</svg>
