<svg width="58" height="57" viewBox="0 0 58 57" fill="none" xmlns="http://www.w3.org/2000/svg">
<g clip-path="url(#clip0_108_1565)">
<g clip-path="url(#clip1_108_1565)">
<path d="M27.3708 10.1101C26.7105 10.2919 26.3373 10.5216 25.83 11.0671C24.5285 12.4835 24.739 14.7038 26.2894 15.8427C26.5382 16.0245 26.9019 16.2255 27.1029 16.2925L27.457 16.3978V17.6132V18.8286L26.7679 19.0009C24.538 19.5368 21.8488 20.8575 19.8486 22.3888C19.1212 22.9439 17.523 24.4751 16.9009 25.2216L16.4224 25.7958L12.757 25.8437L9.10112 25.8915L8.8523 26.1212C8.37378 26.5806 8.47905 27.3941 9.05327 27.6525C9.2064 27.7195 10.2878 27.7577 12.1445 27.7577C13.7236 27.7577 15.0156 27.7769 15.0156 27.796C15.0156 27.8152 14.7859 28.2745 14.4988 28.82C14.2212 29.3655 13.848 30.1886 13.6757 30.648L13.3599 31.4902H7.97183H2.58374L2.33491 31.7007C2.00952 31.9878 1.91382 32.5429 2.14351 32.8874C2.47847 33.3947 2.53589 33.4042 7.89526 33.4042H12.8335L12.7761 33.6148C12.7091 33.8732 12.4603 35.6915 12.3742 36.4859L12.3263 37.0409H10.1251C7.73257 37.0409 7.50288 37.0792 7.28276 37.5673C7.13921 37.8831 7.13921 38.1128 7.28276 38.4286C7.50288 38.9167 7.73257 38.955 10.1634 38.955H12.4029L12.4699 39.7206C12.5273 40.4575 12.8718 42.3525 12.9675 42.5152C12.9962 42.5534 11.6181 42.5917 9.89546 42.5917C6.51714 42.5917 6.28745 42.6204 5.97163 43.1085C5.74194 43.453 5.83765 44.0081 6.16304 44.2952C6.41187 44.5058 6.42144 44.5058 10.0007 44.5058H13.5896L13.6949 44.812C13.8863 45.3671 14.7955 47.1472 15.3027 47.9607C17.1593 50.9562 19.9634 53.4636 23.1982 55.0331C27.8972 57.3204 32.9408 57.6267 38.0322 55.9423C38.8648 55.6648 41.1999 54.5546 41.9369 54.0761C42.7121 53.5784 42.8556 52.8894 42.2718 52.4013C41.889 52.0759 41.4775 52.095 40.9033 52.4587C40.0037 53.0329 38.3671 53.7986 37.2474 54.1718C32.0794 55.8849 26.4425 55.1288 21.9541 52.1142C14.7955 47.3003 12.2498 37.998 15.963 30.1982C18.3365 25.2216 22.758 21.7859 28.3183 20.6087C29.4093 20.3695 29.706 20.3503 31.6679 20.3503C33.6394 20.3503 33.9265 20.3695 35.0271 20.6087C36.7785 20.982 37.8599 21.3552 39.4677 22.1591C41.0755 22.963 42.2048 23.7286 43.4585 24.8866C49.4687 30.4279 50.8181 39.5484 46.655 46.5443C46.1287 47.4439 46.0617 47.6736 46.2148 48.0564C46.4158 48.5253 47.1048 48.7646 47.5642 48.5253C47.8035 48.3913 48.3011 47.597 48.9328 46.3433C52.2058 39.8068 51.5263 32.007 47.1623 26.1308C46.4253 25.1355 44.7984 23.4415 43.8222 22.6568C41.7742 21.0011 39.2093 19.69 36.7115 19.0296L35.8789 18.8095V17.6132V16.4169L36.4148 16.1872C37.0943 15.8905 37.7451 15.2589 38.0609 14.5698C38.415 13.7947 38.4246 12.7228 38.0609 11.9571C37.7164 11.2011 37.2091 10.6843 36.4722 10.3206L35.831 10.0048L31.8593 9.98566C28.5958 9.96653 27.7919 9.98566 27.3708 10.1101ZM35.4003 11.9284C35.8119 12.0146 36.3287 12.5505 36.4148 12.962C36.4914 13.4023 36.3191 13.8808 35.965 14.2253L35.6779 14.5029L31.7541 14.5316C27.9355 14.5603 27.8111 14.5507 27.5048 14.3593C26.8923 13.9861 26.7009 13.1247 27.1029 12.5314C27.5335 11.8806 27.5718 11.871 31.5339 11.871C33.4863 11.871 35.2281 11.8997 35.4003 11.9284ZM33.9648 17.4409V18.4267H31.6679H29.371V17.4409V16.4648H31.6679H33.9648V17.4409Z" fill="#330099"/>
<path d="M29.8496 22.9438C27.8685 23.2596 26.4138 23.7189 24.873 24.5133C20.8631 26.5805 18.0781 30.265 17.1019 34.7822C16.7957 36.1986 16.7957 39.1367 17.1115 40.5818C17.9728 44.6205 20.2793 47.9893 23.6767 50.1713C28.5289 53.2912 34.807 53.2912 39.6591 50.1713C43.0566 47.9893 45.363 44.6205 46.2244 40.5818C46.5402 39.1367 46.5402 36.1986 46.2339 34.7822C44.9132 28.6859 40.1855 24.0922 34.1754 23.0586C33.1609 22.8863 30.6152 22.8193 29.8496 22.9438ZM33.7255 24.9344C39.3146 25.8531 43.583 30.198 44.4539 35.8445C44.6357 37.0025 44.5879 39.1271 44.3582 40.199C43.7935 42.8117 42.6355 44.9459 40.7693 46.8025C38.8744 48.6879 36.8072 49.8076 34.2232 50.3531C32.9312 50.6307 30.5865 50.6594 29.3423 50.4105C27.5527 50.0469 25.7822 49.31 24.2988 48.3051C23.9064 48.0275 23.1216 47.3576 22.5666 46.8025C20.7004 44.9459 19.5423 42.8117 18.9777 40.199C18.748 39.1271 18.7002 37.0025 18.882 35.8445C19.7433 30.2363 24.0213 25.8627 29.5529 24.9344C30.5673 24.7621 32.692 24.7621 33.7255 24.9344Z" fill="#330099"/>
<path d="M31.199 26.6476C30.8449 26.839 30.7205 27.174 30.7109 27.8822C30.7109 28.6095 30.8736 29.0115 31.2564 29.1837C31.5627 29.3273 31.8211 29.3177 32.1369 29.155C32.5006 28.9636 32.625 28.6287 32.625 27.796C32.625 27.1261 32.6059 27.0496 32.3475 26.7912C32.0316 26.4849 31.601 26.4275 31.199 26.6476Z" fill="#330099"/>
<path d="M38.0322 30.0929C37.8791 30.1694 36.6732 31.3083 35.3621 32.6194L32.9791 35.012L32.5962 34.878C32.1273 34.7153 31.1607 34.7153 30.7109 34.8876L30.3759 35.012L29.1701 33.8253C28.0599 32.7343 27.9355 32.6386 27.6101 32.6386C27.1507 32.6386 26.921 32.763 26.7392 33.1171C26.4425 33.6913 26.5095 33.8253 27.7919 35.1173L28.9787 36.3231L28.8447 36.7921C28.5384 37.8065 28.7681 38.8593 29.4763 39.6536C30.6248 40.9647 32.7111 40.9647 33.8595 39.6536C34.5677 38.8593 34.7974 37.8065 34.4912 36.7921L34.3476 36.3231L36.8359 33.8349C39.2763 31.3849 39.3242 31.3274 39.3242 30.9446C39.3242 30.6575 39.2572 30.4948 39.0753 30.3034C38.9318 30.1694 38.7691 30.0546 38.6925 30.0546C38.6255 30.0546 38.5203 30.0354 38.4437 30.0067C38.3767 29.9876 38.1949 30.0259 38.0322 30.0929ZM32.3953 36.9835C32.7781 37.3663 32.8259 37.7778 32.5388 38.2468C31.9933 39.1368 30.6152 38.6966 30.6152 37.6247C30.6152 37.1366 31.132 36.6581 31.6679 36.6581C31.9933 36.6581 32.1273 36.7155 32.3953 36.9835Z" fill="#330099"/>
<path d="M20.8056 36.9836C20.3654 37.4238 20.3941 38.0555 20.8726 38.4096C21.1502 38.6201 21.9062 38.7254 22.4134 38.6297C23.2173 38.4766 23.5236 37.5961 22.9685 37.0314C22.7005 36.7635 22.6431 36.7539 21.8584 36.7539C21.1119 36.7539 21.0162 36.773 20.8056 36.9836Z" fill="#330099"/>
<path d="M40.3674 37.0313C40.1664 37.2418 40.0898 37.4045 40.0898 37.6629C40.0898 38.419 40.5205 38.7061 41.602 38.6487C42.2623 38.6199 42.3293 38.5912 42.5877 38.3041C42.8844 37.9692 42.9322 37.6725 42.7504 37.2801C42.5781 36.8973 42.2049 36.7537 41.3818 36.7537C40.7023 36.7537 40.6258 36.7729 40.3674 37.0313Z" fill="#330099"/>
<path d="M31.4096 46.1041C31.2947 46.1232 31.0842 46.2763 30.9502 46.4294C30.7396 46.6878 30.7109 46.8123 30.7109 47.4822C30.7109 48.1808 30.7301 48.2574 30.9885 48.5445C31.3043 48.8986 31.7732 48.956 32.1848 48.6785C32.5197 48.4679 32.625 48.1712 32.625 47.4726C32.625 47.1664 32.5867 46.8027 32.5293 46.6687C32.3857 46.2859 31.8594 46.0179 31.4096 46.1041Z" fill="#330099"/>
<path d="M2.60286 42.7354C1.6554 43.1469 1.92337 44.5059 2.94739 44.5059C3.86614 44.5059 4.26809 43.3191 3.51204 42.8502C3.15794 42.6205 2.92825 42.5918 2.60286 42.7354Z" fill="#330099"/>
<path d="M44.004 50.0471C43.6403 50.4203 43.6308 50.8797 43.9753 51.2912C44.1763 51.54 44.2911 51.5879 44.6261 51.5879C45.095 51.5879 45.3821 51.4156 45.5448 51.0232C45.9276 50.0854 44.7313 49.3293 44.004 50.0471Z" fill="#330099"/>
</g>
</g>
<defs>
<clipPath id="clip0_108_1565">
<rect width="57" height="57" fill="white" transform="translate(0.400024)"/>
</clipPath>
<clipPath id="clip1_108_1565">
<rect width="49" height="49" fill="white" transform="translate(2 9)"/>
</clipPath>
</defs>
</svg>
