<svg width="58" height="57" viewBox="0 0 58 57" fill="none" xmlns="http://www.w3.org/2000/svg">
<g clip-path="url(#clip0_107_1542)">
<g clip-path="url(#clip1_107_1542)">
<path d="M25.1807 8.04805C23.7953 8.20098 23.1116 8.30893 22.212 8.49785C14.2235 10.1981 7.47652 16.2884 4.89466 24.142C4.49883 25.3384 4.14799 26.8318 3.94108 28.2801C3.77915 29.3147 3.77915 32.7871 3.93208 33.7677C4.30092 36.0797 4.81369 37.9509 5.57836 39.7321C8.24118 45.9573 13.5758 50.8602 19.945 52.9383C22.347 53.7209 24.1912 54.0088 26.845 53.9998C28.8241 53.9998 29.3819 53.9458 31.2081 53.586C36.9925 52.4525 42.5431 48.6831 45.9436 43.5644C47.9407 40.5687 49.0652 37.6 49.6679 33.7677C49.8209 32.7871 49.8209 29.3147 49.6589 28.2801C48.9482 23.4493 47.0501 19.3831 43.8655 15.8116C40.1951 11.7004 35.3732 9.08259 29.8856 8.21897C29.049 8.08403 25.8554 7.96708 25.1807 8.04805ZM25.9004 10.378C25.9004 10.8908 25.9274 10.9987 26.1523 11.2326C26.3052 11.4036 26.5121 11.5295 26.719 11.5565C26.9979 11.6015 27.0969 11.5655 27.3488 11.3406C27.6276 11.0977 27.6546 11.0257 27.6816 10.432L27.7176 9.79328L28.0055 9.82926C28.1584 9.85625 28.5902 9.90123 28.9591 9.92822C30.4524 10.0452 32.6744 10.6029 34.3927 11.2866C35.0854 11.5655 36.5697 12.2672 36.6866 12.3661C36.7046 12.3751 36.6327 12.5731 36.5247 12.789C36.2998 13.2568 36.2908 13.4007 36.4707 13.7515C36.6417 14.0844 36.8576 14.2013 37.2804 14.2013C37.6132 14.2013 37.9461 13.9494 38.189 13.5266C38.2789 13.3647 38.2969 13.3647 38.6298 13.5716C39.6194 14.1833 41.4006 15.7397 42.4261 16.8912C43.2537 17.8177 44.4322 19.3471 44.4322 19.5C44.4322 19.554 44.3153 19.6529 44.1713 19.7339C43.8115 19.9138 43.6226 20.2107 43.6226 20.5705C43.6226 20.9664 43.7485 21.1823 44.0724 21.3532C44.4232 21.5331 44.5672 21.5241 45.035 21.2992C45.2509 21.1913 45.4488 21.1193 45.4578 21.1373C45.5657 21.2542 46.2314 22.6756 46.5553 23.4852C47.23 25.1585 47.7698 27.3265 47.8957 28.8649C47.9227 29.2337 47.9677 29.6655 47.9947 29.8185L48.0306 30.1063L47.3919 30.1423C46.8072 30.1693 46.7262 30.1963 46.4923 30.4662C46.3304 30.6461 46.2314 30.853 46.2314 31.0239C46.2314 31.1948 46.3304 31.4018 46.4923 31.5817C46.7262 31.8516 46.8072 31.8785 47.3919 31.9055L48.0306 31.9415L47.9947 32.2294C47.9677 32.3823 47.9227 32.8141 47.8957 33.183C47.7788 34.6763 47.221 36.8983 46.5373 38.6166C46.2584 39.3093 45.5567 40.7936 45.4578 40.9106C45.4488 40.9286 45.2509 40.8566 45.035 40.7486C44.5672 40.5237 44.4232 40.5147 44.0724 40.6947C43.7395 40.8656 43.6226 41.0815 43.6226 41.5043C43.6226 41.8372 43.8745 42.17 44.2973 42.4129C44.4682 42.5119 44.4682 42.5209 44.2163 42.9077C43.0468 44.6799 40.456 47.2708 38.6838 48.4402C38.2969 48.6921 38.2879 48.6921 38.189 48.5212C37.9461 48.0984 37.6132 47.8465 37.2804 47.8465C36.8576 47.8465 36.6417 47.9635 36.4707 48.2963C36.2908 48.6472 36.2998 48.7911 36.5247 49.2589C36.6327 49.4748 36.7046 49.6727 36.6866 49.6817C36.5697 49.7807 35.0854 50.4823 34.3927 50.7612C32.6744 51.4449 30.4524 52.0027 28.9591 52.1196C28.5902 52.1466 28.1584 52.1916 28.0055 52.2186L27.7176 52.2546L27.6816 51.6158C27.6546 51.0221 27.6276 50.9501 27.3488 50.7072C27.0969 50.4823 26.9979 50.4464 26.719 50.4913C26.5121 50.5183 26.3052 50.6443 26.1523 50.8152C25.9364 51.0491 25.9004 51.166 25.9004 51.6608V52.2366L25.2977 52.1916C23.6334 52.0836 21.2944 51.5619 19.6122 50.9411C18.5326 50.5363 16.9044 49.7717 16.9044 49.6727C16.9044 49.6277 16.9853 49.4388 17.0843 49.2409C17.3002 48.8181 17.3092 48.6382 17.1293 48.2963C16.9583 47.9635 16.7424 47.8465 16.3196 47.8465C15.9958 47.8465 15.7439 48.0354 15.375 48.5572C15.2401 48.7461 15.2311 48.7371 14.2505 48.0084C12.9731 47.0639 10.7601 44.8508 9.81549 43.5734C9.08681 42.5928 9.07781 42.5838 9.26673 42.4489C9.7885 42.08 9.97742 41.8282 9.97742 41.5043C9.97742 41.0815 9.86047 40.8656 9.52762 40.6947C9.18577 40.5147 9.00584 40.5237 8.58303 40.7396C8.38512 40.8386 8.1962 40.9196 8.15122 40.9196C8.05227 40.9196 7.2876 39.2913 6.88278 38.2118C6.26205 36.5295 5.74028 34.1905 5.63233 32.5263L5.58735 31.9235H6.17209C6.72085 31.9235 6.77483 31.9055 7.0627 31.6177C7.47652 31.2038 7.47652 30.844 7.0627 30.4302C6.77483 30.1423 6.72085 30.1243 6.1631 30.1243H5.56036L5.60534 29.8274C5.63233 29.6745 5.67731 29.2337 5.7043 28.8649C5.83024 27.3265 6.37001 25.1585 7.04471 23.4852C7.36857 22.6756 8.03427 21.2542 8.14223 21.1373C8.15122 21.1193 8.34913 21.1913 8.56504 21.2992C9.03283 21.5241 9.17677 21.5331 9.52762 21.3532C9.85147 21.1823 9.97742 20.9664 9.97742 20.5705C9.97742 20.2107 9.7885 19.9138 9.42866 19.7339C9.28472 19.6529 9.16777 19.554 9.16777 19.5C9.16777 19.3471 10.3463 17.8177 11.1739 16.8912C12.1994 15.7397 13.9807 14.1833 14.9702 13.5716C15.3031 13.3647 15.3211 13.3647 15.411 13.5266C15.6539 13.9494 15.9868 14.2013 16.3196 14.2013C16.7424 14.2013 16.9583 14.0844 17.1293 13.7515C17.3092 13.4007 17.3002 13.2568 17.0753 12.789C16.9673 12.5731 16.8954 12.3751 16.9134 12.3661C17.0303 12.2672 18.5147 11.5655 19.2073 11.2866C20.9706 10.5849 23.0936 10.0632 24.8209 9.90123C25.2887 9.85625 25.7295 9.81127 25.7924 9.80227C25.8644 9.79328 25.9004 9.9642 25.9004 10.378Z" fill="#330099"/>
<path d="M26.4761 13.4817C26.1883 13.5987 25.9004 14.0125 25.9004 14.3003C25.9004 14.6602 26.3142 15.092 26.719 15.155C26.9979 15.2 27.0969 15.164 27.3488 14.9391C27.6006 14.7142 27.6546 14.6062 27.6546 14.2914C27.6546 13.9765 27.6006 13.8685 27.3577 13.6526C27.0609 13.3917 26.818 13.3378 26.4761 13.4817Z" fill="#330099"/>
<path d="M29.7777 14.0935C29.5707 14.3004 29.4988 14.4533 29.4988 14.6962C29.4988 15.2 29.8316 15.4789 30.7582 15.7218C34.4646 16.7203 37.9281 19.3382 40.1411 22.8106C41.0137 24.178 41.8233 26.0402 42.1832 27.5336C42.3991 28.3972 42.633 30.1244 42.633 30.8171C42.633 31.2039 42.678 31.3389 42.8849 31.5638C43.0378 31.7347 43.2447 31.8607 43.4516 31.8876C43.7305 31.9326 43.8295 31.8966 44.0814 31.6717L44.3872 31.3929L44.3692 30.4033C44.2883 25.0507 41.0947 19.5451 36.1558 16.2345C34.5546 15.155 31.7658 13.9765 30.5603 13.8686C30.0835 13.8236 30.0295 13.8326 29.7777 14.0935Z" fill="#330099"/>
<path d="M25.2707 17.6289C20.2329 18.1866 15.8338 21.6771 14.1156 26.463C13.0721 29.3777 13.0721 32.6703 14.1156 35.585C15.456 39.3183 18.5057 42.368 22.239 43.7084C25.6125 44.9229 29.5708 44.707 32.6654 43.1596C37.7572 40.6138 40.7349 35.3781 40.2221 29.8725C39.9702 27.1737 39.1066 24.9517 37.4963 22.8376C34.6625 19.1042 29.9666 17.1071 25.2707 17.6289ZM27.7176 22.4058L27.7446 25.4914L27.9875 25.9502C28.2934 26.526 28.9321 27.1017 29.4718 27.2816C29.9846 27.4616 30.8032 27.4706 31.262 27.2996C31.46 27.2367 32.6834 26.553 33.9968 25.7793L36.3808 24.3849L36.5337 24.5738C36.7136 24.7987 37.3434 25.9142 37.3074 25.9412C37.2894 25.9502 36.1739 26.6069 34.8245 27.3896C33.4661 28.1722 32.2156 28.9639 32.0447 29.1348C31.0192 30.1424 31.0192 31.9056 32.0447 32.9132C32.2156 33.0841 33.4661 33.8757 34.8245 34.6584C36.1739 35.441 37.2894 36.0977 37.3074 36.1067C37.3434 36.1337 36.7136 37.2492 36.5337 37.4741L36.3808 37.6631L33.9968 36.2687C32.6834 35.495 31.46 34.8113 31.262 34.7483C30.8032 34.5774 29.9846 34.5864 29.4718 34.7663C28.9321 34.9463 28.2934 35.522 27.9875 36.0977L27.7446 36.5565L27.7176 39.6332L27.6906 42.7188H26.8H25.9094L25.8824 39.6332L25.8554 36.5565L25.6125 36.0977C25.3067 35.522 24.668 34.9463 24.1282 34.7663C23.6154 34.5864 22.7968 34.5774 22.338 34.7483C22.1401 34.8113 20.9166 35.495 19.6032 36.2687L17.2192 37.6631L17.0663 37.4741C16.8864 37.2492 16.2567 36.1337 16.2926 36.1067C16.3106 36.0977 17.4261 35.441 18.7755 34.6584C20.134 33.8757 21.3844 33.0841 21.5553 32.9132C22.5809 31.9056 22.5809 30.1424 21.5553 29.1348C21.3844 28.9639 20.134 28.1722 18.7755 27.3896C17.4261 26.6069 16.3106 25.9502 16.2926 25.9412C16.2567 25.9142 16.8864 24.7987 17.0663 24.5738L17.2192 24.3849L19.6032 25.7793C20.9166 26.553 22.1401 27.2367 22.338 27.2996C22.7968 27.4706 23.6154 27.4616 24.1282 27.2816C24.668 27.1017 25.3067 26.526 25.6125 25.9502L25.8554 25.4914L25.8824 22.4058L25.9094 19.3291H26.8H27.6906L27.7176 22.4058ZM24.0832 22.4418L24.0562 25.1946L23.8043 25.4105C23.3185 25.8243 23.1206 25.7523 20.6197 24.295L18.3347 22.9725L18.9465 22.3968C20.035 21.3712 21.5193 20.4896 23.0577 19.9589C24.2271 19.545 24.1102 19.2662 24.0832 22.4418ZM30.5064 19.9499C32.0627 20.4716 33.547 21.3532 34.6536 22.3968L35.2653 22.9725L32.9803 24.295C30.4794 25.7523 30.2815 25.8243 29.7957 25.4105L29.5438 25.1946L29.5168 22.4418C29.4988 20.1748 29.5168 19.689 29.6158 19.689C29.6787 19.689 30.0836 19.8059 30.5064 19.9499ZM17.9749 28.9999C19.1984 29.7196 20.2779 30.3853 20.3678 30.4842C20.5838 30.7181 20.5838 31.3299 20.3678 31.5637C20.1969 31.7527 15.7979 34.3525 15.6539 34.3525C15.456 34.3525 15.1142 32.2474 15.1142 31.024C15.1142 29.8005 15.456 27.6955 15.6539 27.6955C15.6989 27.6955 16.7424 28.2802 17.9749 28.9999ZM38.18 28.3432C38.5938 30.1694 38.5938 31.8786 38.18 33.7048C38.099 34.0646 37.9911 34.3525 37.9461 34.3525C37.8022 34.3525 33.4031 31.7527 33.2322 31.5637C33.0073 31.3119 33.0163 30.7001 33.2592 30.4662C33.4751 30.2503 37.7662 27.7044 37.9281 27.7044C37.9821 27.6955 38.099 27.9833 38.18 28.3432ZM23.8043 36.6375L24.0562 36.8534L24.0832 39.6062C24.1012 41.8732 24.0832 42.359 23.9843 42.359C23.7773 42.359 22.347 41.8462 21.7352 41.5583C20.8716 41.1445 19.6392 40.2989 18.9465 39.6512L18.3347 39.0754L20.6107 37.753C23.1116 36.2957 23.3185 36.2237 23.8043 36.6375ZM32.9803 37.744L35.2653 39.0754L34.6536 39.6512C33.9609 40.2989 32.7284 41.1445 31.8648 41.5583C31.2531 41.8462 29.8227 42.359 29.6158 42.359C29.5168 42.359 29.4988 41.8732 29.5168 39.6062L29.5438 36.8534L29.7957 36.6375C30.2815 36.2237 30.4794 36.2957 32.9803 37.744Z" fill="#330099"/>
<path d="M25.9453 28.478C24.0472 29.1617 23.4984 31.5007 24.9108 32.9131C25.4596 33.4618 25.9813 33.6777 26.8 33.6777C27.6186 33.6777 28.1404 33.4618 28.6891 32.9131C29.2379 32.3643 29.4538 31.8425 29.4538 31.0239C29.4538 30.2053 29.2379 29.6835 28.6891 29.1347C27.9694 28.4151 26.8629 28.1542 25.9453 28.478ZM27.4297 30.4392C27.7445 30.763 27.7356 31.2938 27.4027 31.6266C26.8629 32.1754 25.9453 31.7976 25.9453 31.0329C25.9453 30.2323 26.8539 29.8634 27.4297 30.4392Z" fill="#330099"/>
</g>
</g>
<defs>
<clipPath id="clip0_107_1542">
<rect width="57" height="57" fill="white" transform="translate(0.799988)"/>
</clipPath>
<clipPath id="clip1_107_1542">
<rect width="57" height="57" fill="white" transform="translate(-0.200012 -2)"/>
</clipPath>
</defs>
</svg>
