<svg width="58" height="57" viewBox="0 0 58 57" fill="none" xmlns="http://www.w3.org/2000/svg">
<g clip-path="url(#clip0_116_1577)">
<path d="M37.2647 10.353C36.3207 10.4601 35.8547 10.5356 35.2417 10.6679C29.7979 11.8581 25.2001 16.1216 23.4406 21.6195C23.1709 22.4571 22.9318 23.5025 22.7908 24.5164C22.6805 25.2406 22.6805 27.6715 22.7847 28.358C23.036 29.9764 23.3855 31.2864 23.9066 32.5333C25.7212 36.8913 29.3565 40.3235 33.6968 41.7782C35.3337 42.3261 36.5904 42.5276 38.3989 42.5213C39.7476 42.5213 40.1276 42.4836 41.3721 42.2317C45.314 41.4381 49.0964 38.7994 51.4137 35.2161C52.7747 33.119 53.541 31.0407 53.9517 28.358C54.056 27.6715 54.056 25.2406 53.9456 24.5164C53.4613 21.1346 52.1678 18.288 49.9976 15.7879C47.4964 12.9099 44.2105 11.0772 40.4709 10.4727C39.9008 10.3782 37.7245 10.2963 37.2647 10.353ZM37.7552 11.9841C37.7552 12.3431 37.7736 12.4186 37.9268 12.5824C38.031 12.702 38.172 12.7902 38.313 12.8091C38.5031 12.8406 38.5705 12.8154 38.7422 12.6579C38.9322 12.4879 38.9506 12.4375 38.969 12.0219L38.9935 11.5748L39.1897 11.5999C39.2939 11.6188 39.5882 11.6503 39.8395 11.6692C40.8572 11.7511 42.3714 12.1415 43.5423 12.6202C44.0143 12.8154 45.0258 13.3066 45.1055 13.3759C45.1178 13.3822 45.0688 13.5207 44.9952 13.6719C44.8419 13.9993 44.8358 14.1001 44.9584 14.3457C45.0749 14.5787 45.222 14.6606 45.5101 14.6606C45.737 14.6606 45.9638 14.4843 46.1293 14.1883C46.1906 14.0749 46.2029 14.0749 46.4297 14.2198C47.1041 14.648 48.3179 15.7375 49.0167 16.5436C49.5807 17.1922 50.3838 18.2628 50.3838 18.3699C50.3838 18.4077 50.3041 18.477 50.206 18.5336C49.9608 18.6596 49.8321 18.8674 49.8321 19.1193C49.8321 19.3964 49.9179 19.5476 50.1386 19.6672C50.3777 19.7932 50.4758 19.7869 50.7946 19.6294C50.9417 19.5539 51.0766 19.5035 51.0827 19.5161C51.1563 19.5979 51.6099 20.593 51.8306 21.1598C52.2904 22.3311 52.6582 23.8488 52.744 24.9257C52.7624 25.1839 52.7931 25.4862 52.8115 25.5933L52.836 25.7948L52.4007 25.82C52.0023 25.8389 51.9471 25.8578 51.7877 26.0467C51.6773 26.1727 51.6099 26.3175 51.6099 26.4372C51.6099 26.5568 51.6773 26.7017 51.7877 26.8276C51.9471 27.0166 52.0023 27.0355 52.4007 27.0543L52.836 27.0795L52.8115 27.2811C52.7931 27.3881 52.7624 27.6904 52.744 27.9486C52.6643 28.994 52.2843 30.5495 51.8183 31.7524C51.6283 32.2373 51.1501 33.2764 51.0827 33.3583C51.0766 33.3709 50.9417 33.3205 50.7946 33.2449C50.4758 33.0875 50.3777 33.0812 50.1386 33.2071C49.9118 33.3268 49.8321 33.4779 49.8321 33.7739C49.8321 34.0069 50.0037 34.2399 50.2919 34.41C50.4084 34.4793 50.4084 34.4856 50.2367 34.7564C49.4397 35.997 47.6742 37.8107 46.4665 38.6294C46.2029 38.8057 46.1968 38.8057 46.1293 38.6861C45.9638 38.3901 45.737 38.2138 45.5101 38.2138C45.222 38.2138 45.0749 38.2956 44.9584 38.5286C44.8358 38.7742 44.8419 38.875 44.9952 39.2025C45.0688 39.3536 45.1178 39.4922 45.1055 39.4985C45.0258 39.5677 44.0143 40.059 43.5423 40.2542C42.3714 40.7328 40.8572 41.1233 39.8395 41.2051C39.5882 41.224 39.2939 41.2555 39.1897 41.2744L38.9935 41.2996L38.969 40.8525C38.9506 40.4368 38.9322 40.3864 38.7422 40.2164C38.5705 40.059 38.5031 40.0338 38.313 40.0653C38.172 40.0842 38.031 40.1723 37.9268 40.292C37.7797 40.4557 37.7552 40.5376 37.7552 40.884V41.287L37.3444 41.2555C36.2103 41.1799 34.6164 40.8147 33.47 40.3801C32.7344 40.0968 31.6248 39.5615 31.6248 39.4922C31.6248 39.4607 31.6799 39.3284 31.7474 39.1899C31.8945 38.8939 31.9006 38.7679 31.778 38.5286C31.6615 38.2956 31.5144 38.2138 31.2263 38.2138C31.0056 38.2138 30.8339 38.346 30.5826 38.7113C30.4906 38.8435 30.4845 38.8372 29.8163 38.3271C28.9458 37.6659 27.4377 36.1166 26.794 35.2224C26.2974 34.5359 26.2913 34.5296 26.42 34.4352C26.7756 34.177 26.9043 34.0006 26.9043 33.7739C26.9043 33.4779 26.8246 33.3268 26.5978 33.2071C26.3649 33.0812 26.2422 33.0875 25.9541 33.2386C25.8192 33.3079 25.6905 33.3646 25.6599 33.3646C25.5924 33.3646 25.0713 32.2247 24.7955 31.469C24.3725 30.2913 24.0169 28.6539 23.9433 27.4889L23.9127 27.0669H24.3112C24.6851 27.0669 24.7219 27.0543 24.9181 26.8528C25.2001 26.5631 25.2001 26.3112 24.9181 26.0215C24.7219 25.82 24.6851 25.8074 24.305 25.8074H23.8943L23.9249 25.5996C23.9433 25.4925 23.974 25.1839 23.9924 24.9257C24.0782 23.8488 24.446 22.3311 24.9058 21.1598C25.1265 20.593 25.5802 19.5979 25.6537 19.5161C25.6599 19.5035 25.7947 19.5539 25.9419 19.6294C26.2606 19.7869 26.3587 19.7932 26.5978 19.6672C26.8185 19.5476 26.9043 19.3964 26.9043 19.1193C26.9043 18.8674 26.7756 18.6596 26.5304 18.5336C26.4323 18.477 26.3526 18.4077 26.3526 18.3699C26.3526 18.2628 27.1557 17.1922 27.7197 16.5436C28.4185 15.7375 29.6324 14.648 30.3067 14.2198C30.5335 14.0749 30.5458 14.0749 30.6071 14.1883C30.7726 14.4843 30.9994 14.6606 31.2263 14.6606C31.5144 14.6606 31.6615 14.5787 31.778 14.3457C31.9006 14.1001 31.8945 13.9993 31.7412 13.6719C31.6677 13.5207 31.6186 13.3822 31.6309 13.3759C31.7106 13.3066 32.7221 12.8154 33.1941 12.6202C34.3957 12.1289 35.8425 11.7637 37.0195 11.6503C37.3383 11.6188 37.6387 11.5873 37.6816 11.581C37.7306 11.5748 37.7552 11.6944 37.7552 11.9841Z" fill="#330099"/>
<path d="M38.1475 14.1569C37.9513 14.2388 37.7551 14.5285 37.7551 14.73C37.7551 14.9819 38.0371 15.2842 38.313 15.3283C38.503 15.3597 38.5705 15.3346 38.7421 15.1771C38.9138 15.0197 38.9506 14.9441 38.9506 14.7237C38.9506 14.5033 38.9138 14.4277 38.7483 14.2765C38.546 14.0939 38.3804 14.0561 38.1475 14.1569Z" fill="#330099"/>
<path d="M40.3973 14.5849C40.2563 14.7298 40.2073 14.8368 40.2073 15.0068C40.2073 15.3595 40.4341 15.5547 41.0655 15.7248C43.5913 16.4238 45.9515 18.2564 47.4596 20.6873C48.0542 21.6446 48.6059 22.9482 48.8512 23.9936C48.9983 24.5982 49.1577 25.8073 49.1577 26.2922C49.1577 26.563 49.1883 26.6575 49.3293 26.8149C49.4336 26.9346 49.5746 27.0227 49.7156 27.0416C49.9056 27.0731 49.973 27.0479 50.1447 26.8905L50.3531 26.6953L50.3409 26.0025C50.2857 22.2554 48.1094 18.4013 44.7438 16.0837C43.6526 15.328 41.7521 14.503 40.9307 14.4275C40.6058 14.396 40.569 14.4023 40.3973 14.5849Z" fill="#330099"/>
<path d="M37.326 17.0599C33.8929 17.4503 30.8952 19.8938 29.7243 23.2441C29.0131 25.2846 29.0131 27.5895 29.7243 29.6299C30.6377 32.2435 32.7159 34.3784 35.26 35.3167C37.5589 36.1669 40.2563 36.0158 42.3652 34.9326C45.835 33.1503 47.8642 29.4851 47.5147 25.631C47.3431 23.7417 46.7546 22.1861 45.6572 20.7062C43.7261 18.0927 40.5261 16.6946 37.326 17.0599ZM38.9935 20.4039L39.0118 22.564L39.1774 22.8852C39.3858 23.2882 39.8211 23.6913 40.1889 23.8172C40.5383 23.9432 41.0962 23.9495 41.4088 23.8298C41.5437 23.7857 42.3774 23.3071 43.2725 22.7655L44.897 21.7894L45.0013 21.9216C45.1239 22.0791 45.553 22.86 45.5285 22.8789C45.5162 22.8852 44.756 23.3449 43.8365 23.8928C42.9108 24.4407 42.0587 24.9949 41.9422 25.1145C41.2433 25.8199 41.2433 27.0542 41.9422 27.7596C42.0587 27.8792 42.9108 28.4334 43.8365 28.9813C44.756 29.5292 45.5162 29.9889 45.5285 29.9952C45.553 30.0141 45.1239 30.795 45.0013 30.9525L44.897 31.0847L43.2725 30.1086C42.3774 29.567 41.5437 29.0884 41.4088 29.0443C41.0962 28.9246 40.5383 28.9309 40.1889 29.0569C39.8211 29.1828 39.3858 29.5859 39.1774 29.9889L39.0118 30.3101L38.9935 32.4639L38.9751 34.624H38.3682H37.7612L37.7429 32.4639L37.7245 30.3101L37.5589 29.9889C37.3505 29.5859 36.9152 29.1828 36.5474 29.0569C36.198 28.9309 35.6401 28.9246 35.3275 29.0443C35.1926 29.0884 34.3589 29.567 33.4638 30.1086L31.8393 31.0847L31.735 30.9525C31.6124 30.795 31.1833 30.0141 31.2078 29.9952C31.2201 29.9889 31.9803 29.5292 32.8998 28.9813C33.8255 28.4334 34.6776 27.8792 34.7941 27.7596C35.493 27.0542 35.493 25.8199 34.7941 25.1145C34.6776 24.9949 33.8255 24.4407 32.8998 23.8928C31.9803 23.3449 31.2201 22.8852 31.2078 22.8789C31.1833 22.86 31.6124 22.0791 31.735 21.9216L31.8393 21.7894L33.4638 22.7655C34.3589 23.3071 35.1926 23.7857 35.3275 23.8298C35.6401 23.9495 36.198 23.9432 36.5474 23.8172C36.9152 23.6913 37.3505 23.2882 37.5589 22.8852L37.7245 22.564L37.7429 20.4039L37.7612 18.2501H38.3682H38.9751L38.9935 20.4039ZM36.5168 20.4291L36.4984 22.3562L36.3267 22.5073C35.9957 22.797 35.8608 22.7466 34.1566 21.7264L32.5994 20.8007L33.0163 20.3976C33.7581 19.6797 34.7696 19.0625 35.8179 18.691C36.6149 18.4013 36.5352 18.206 36.5168 20.4291ZM40.8939 18.6847C41.9544 19.0499 42.966 19.6671 43.72 20.3976L44.1369 20.8007L42.5798 21.7264C40.8755 22.7466 40.7406 22.797 40.4096 22.5073L40.2379 22.3562L40.2195 20.4291C40.2073 18.8421 40.2195 18.502 40.287 18.502C40.3299 18.502 40.6058 18.5839 40.8939 18.6847ZM32.3542 25.0201C33.188 25.5239 33.9236 25.9899 33.9849 26.0592C34.132 26.2229 34.132 26.6512 33.9849 26.8149C33.8684 26.9472 30.8707 28.7672 30.7726 28.7672C30.6377 28.7672 30.4047 27.2935 30.4047 26.437C30.4047 25.5806 30.6377 24.1069 30.7726 24.1069C30.8032 24.1069 31.5143 24.5163 32.3542 25.0201ZM46.1231 24.5604C46.4051 25.8388 46.4051 27.0353 46.1231 28.3137C46.068 28.5656 45.9944 28.7672 45.9637 28.7672C45.8657 28.7672 42.8679 26.9472 42.7514 26.8149C42.5981 26.6386 42.6043 26.2103 42.7698 26.0466C42.9169 25.8955 45.8411 24.1132 45.9515 24.1132C45.9883 24.1069 46.068 24.3084 46.1231 24.5604ZM36.3267 30.3668L36.4984 30.5179L36.5168 32.445C36.529 34.032 36.5168 34.3721 36.4493 34.3721C36.3083 34.3721 35.3336 34.0131 34.9167 33.8116C34.3282 33.5219 33.4883 32.9299 33.0163 32.4765L32.5994 32.0734L34.1504 31.1477C35.8547 30.1275 35.9957 30.0771 36.3267 30.3668ZM42.5798 31.1414L44.1369 32.0734L43.72 32.4765C43.248 32.9299 42.4081 33.5219 41.8196 33.8116C41.4027 34.0131 40.428 34.3721 40.287 34.3721C40.2195 34.3721 40.2073 34.032 40.2195 32.445L40.2379 30.5179L40.4096 30.3668C40.7406 30.0771 40.8755 30.1275 42.5798 31.1414Z" fill="#330099"/>
<path d="M37.7859 24.6546C36.4923 25.1333 36.1184 26.7706 37.0809 27.7594C37.4548 28.1435 37.8104 28.2947 38.3682 28.2947C38.9261 28.2947 39.2817 28.1435 39.6556 27.7594C40.0296 27.3752 40.1767 27.01 40.1767 26.4369C40.1767 25.8638 40.0296 25.4985 39.6556 25.1144C39.1652 24.6106 38.4112 24.4279 37.7859 24.6546ZM38.7974 26.0275C39.0119 26.2542 39.0058 26.6258 38.779 26.8588C38.4112 27.243 37.7859 26.9785 37.7859 26.4432C37.7859 25.8827 38.405 25.6245 38.7974 26.0275Z" fill="#330099"/>
<g clip-path="url(#clip1_116_1577)">
<path d="M3.1311 5.486C3.1311 6.50865 4.62436 8.17047 6.61536 9.19312C9.35299 10.7271 10.9707 13.9229 16.0726 27.9844C19.4324 37.444 22.1701 46.7757 22.0456 48.821C21.5479 55.4683 27.3964 58.5363 30.8807 53.423C31.7518 52.1447 37.227 49.0767 43.0756 46.9036C54.8972 42.3016 58.257 40.0006 55.5194 38.211C54.3994 37.444 50.1685 38.3388 43.6978 40.8955C30.1341 46.1366 29.8852 46.1366 28.392 44.2191C27.6453 43.3243 24.1611 34.7595 20.6768 25.3C17.0681 15.2012 13.335 7.14781 11.7173 5.74166C8.48192 3.05719 3.1311 2.80152 3.1311 5.486ZM10.4729 7.01998C13.0861 9.32095 26.1521 42.9408 24.9077 44.2191C23.9122 45.2417 23.9122 45.1139 17.317 26.8339C12.2151 12.6446 10.5974 9.44879 7.85973 7.9148C5.86873 6.89215 4.37548 5.74166 4.37548 5.486C4.37548 4.07984 7.98417 4.97467 10.4729 7.01998ZM53.5284 40.512C51.4129 42.3016 34.365 48.5654 32.7473 48.054C31.8762 47.6705 34.4894 46.1366 38.5958 44.6026C42.7023 43.0686 47.182 41.2789 48.5509 40.6398C51.7862 39.2336 55.0216 38.978 53.5284 40.512ZM28.5164 46.5201C31.0051 47.5427 31.1296 51.3777 28.6408 53.423C25.0321 56.491 21.1746 50.7385 24.5344 47.287C26.2765 45.4974 26.0276 45.4974 28.5164 46.5201Z" fill="#330099"/>
<path d="M25.1566 47.7985C23.4144 49.716 24.4099 52.1448 26.8987 52.1448C28.6408 52.1448 29.263 51.5056 29.0141 49.9716C28.6408 47.6707 26.5254 46.5202 25.1566 47.7985Z" fill="#330099"/>
</g>
</g>
<defs>
<clipPath id="clip0_116_1577">
<rect width="57" height="57" fill="white" transform="translate(0.599976)"/>
</clipPath>
<clipPath id="clip1_116_1577">
<rect width="53.5082" height="54.9677" fill="white" transform="translate(3.1311 2.29028)"/>
</clipPath>
</defs>
</svg>
