<svg width="80" height="80" viewBox="0 0 80 80" fill="none" xmlns="http://www.w3.org/2000/svg">
<g clip-path="url(#clip0_93_2231)">
<path d="M38.9529 9.04444C38.6749 9.07416 37.8855 9.17854 37.199 9.26842C31.2642 10.0158 24.9344 12.75 20.0223 16.694C18.7066 17.7545 15.5492 20.9824 14.5109 22.3271C10.7392 27.2279 8.23919 33.1299 7.27394 39.4348C6.90869 41.8407 6.90869 47.1896 7.27394 49.5947C9.08672 61.3978 16.0307 71.1699 26.3656 76.3991C33.2216 79.8655 40.882 80.8963 48.5274 79.3871C53.7168 78.3563 59.1992 75.7417 63.4382 72.305C73.817 63.8334 78.6121 49.7737 75.6298 36.5208C75.1035 34.1751 74.022 31.0821 72.9255 28.8111C67.8389 18.3083 58.2346 11.1364 46.8466 9.32859C45.3849 9.10461 40.0926 8.91034 38.9529 9.04444ZM43.8501 10.6283C44.2742 10.9719 44.6544 11.7337 44.6544 12.2571C44.6544 12.7949 44.1863 13.6017 43.7189 13.9004C43.1487 14.2592 42.2714 14.2592 41.716 13.9301C41.2777 13.6612 40.7075 12.6753 40.7075 12.1817C40.7075 11.6888 41.1898 10.8668 41.643 10.5826C42.2714 10.1803 43.3238 10.21 43.8501 10.6283ZM45.443 15.9025C54.7112 17.1427 62.7807 23.0295 67.0198 31.6656C70.9226 39.5994 70.9226 49.4309 67.0347 57.3342C62.7807 65.9848 54.7112 71.8868 45.443 73.127C33.4564 74.7254 21.8925 68.4357 16.44 57.3639C12.5371 49.4301 12.5371 39.5987 16.44 31.6649C20.6499 23.0889 28.6904 17.187 37.8855 15.9018C39.8593 15.6336 43.4111 15.6336 45.443 15.9025ZM11.0314 42.8113C12.6541 43.7971 11.9669 46.4567 10.0811 46.4567C8.60444 46.4567 7.66898 44.933 8.32714 43.6029C8.80941 42.6772 10.1399 42.2887 11.0314 42.8113ZM74.1978 42.9157C74.5198 43.1397 74.7681 43.4833 74.9142 43.887C75.6305 46.0087 72.6922 47.4875 71.4787 45.605C71.1276 45.0519 71.1134 43.9762 71.4787 43.4238C72.0489 42.5424 73.3063 42.3032 74.1978 42.9157ZM43.6161 74.9646C43.8941 75.1139 44.2444 75.4727 44.3905 75.7562C45.3551 77.609 43.177 79.5067 41.5253 78.2367C40.6189 77.5198 40.5018 76.339 41.2621 75.4278C41.8912 74.6507 42.7387 74.4869 43.6161 74.9646Z" fill="#DDE0F9"/>
<path d="M40.7068 19.4435C38.6167 19.7421 36.5259 20.7287 35.3415 21.9834C32.7394 24.7329 33.2656 29.6635 36.7741 35.6394L37.4905 36.8499L38.1777 36.5063C39.2451 35.9982 40.5607 35.6995 41.7742 35.6995C43.2359 35.6995 44.0983 35.909 45.3118 36.536C46.0721 36.9094 46.3501 36.9992 46.4231 36.8644C46.4813 36.76 46.9203 36.1323 47.4026 35.4748C48.6452 33.7714 50.0629 32.3818 51.7445 31.2169C55.9105 28.3181 56.8466 25.8978 54.7268 23.5376C52.065 20.5641 45.721 18.7114 40.7068 19.4435Z" fill="#DDE0F9"/>
<path d="M40.2387 38.1047C38.6018 38.4933 36.789 40.017 36.0868 41.5863C34.6542 44.7692 35.9698 48.4444 39.0542 49.9383C39.9897 50.3863 40.1507 50.4167 41.6564 50.4167C43.2351 50.4167 43.3082 50.4015 44.3897 49.8492C46.2316 48.9228 47.416 47.294 47.7522 45.2027C48.4543 40.8991 44.4202 37.0892 40.2387 38.1047Z" fill="#DDE0F9"/>
<path d="M19.7733 41.6607C18.0924 42.2282 17.3173 43.7527 17.3173 46.4717C17.3173 51.8952 20.5769 58.2154 24.6265 60.651C26.9365 62.0405 29.1145 62.0558 31.3216 60.6959C33.4855 59.3512 35.9266 56.1241 37.4174 52.6425L37.8997 51.4922L36.8181 50.76C36.233 50.357 35.4876 49.714 35.1514 49.3255C34.0259 47.9809 33.2514 46.0237 33.2514 44.5594V43.9172H31.9067C30.1237 43.9172 27.9308 43.5736 26.6294 43.0807C23.1499 41.781 22.6535 41.6462 21.4109 41.5867C20.723 41.5563 19.9925 41.586 19.7733 41.6607Z" fill="#DDE0F9"/>
<path d="M50.7643 43.7233L50.0629 43.7827V44.5598C50.0629 46.9801 48.5572 49.7745 46.5543 51.0895C46.1451 51.3584 45.8231 51.5976 45.8231 51.6273C45.8231 51.6723 46.1011 52.2398 46.4224 52.927C47.5919 55.3024 48.0302 56.7971 48.3082 59.4117C48.7614 63.7595 50.048 65.7319 52.387 65.7319C55.5154 65.7319 60.5296 61.474 62.7949 56.887C64.4467 53.5555 64.7687 50.4175 63.7013 48.1167C62.2105 44.8881 57.2551 43.1999 50.7643 43.7233Z" fill="#DDE0F9"/>
</g>
<defs>
<clipPath id="clip0_93_2231">
<rect width="80" height="80" fill="white"/>
</clipPath>
</defs>
</svg>
