<svg width="80" height="81" viewBox="0 0 80 81" fill="none" xmlns="http://www.w3.org/2000/svg">
<g clip-path="url(#clip0_93_2183)">
<path d="M36.4951 80.7924C25.9587 80.7924 17.3913 72.6316 17.3913 62.5953C17.3913 56.7006 20.4453 51.135 25.4523 47.7436V16.2872C25.4523 10.4843 30.4031 5.76855 36.4951 5.76855C42.5871 5.76855 47.5379 10.492 47.5379 16.2872V47.7436C52.5449 51.135 55.5989 56.7006 55.5989 62.5953C55.5989 72.6316 47.0315 80.7924 36.4951 80.7924ZM30.7648 48.9838C30.813 49.9101 30.3308 50.7982 29.4708 51.2881C25.2996 53.646 22.7037 57.979 22.7037 62.5953C22.7037 69.8374 28.8922 75.7321 36.4951 75.7321C44.098 75.7321 50.2865 69.8374 50.2865 62.5953C50.2865 57.979 47.6906 53.646 43.5194 51.2881C42.6434 50.7905 42.1531 49.8719 42.2254 48.9379V16.2872C42.2254 13.2786 39.6536 10.8288 36.4951 10.8288C33.3366 10.8288 30.7648 13.2786 30.7648 16.2872V48.9838Z" fill="#DDE0F9"/>
<path d="M56.6277 15.7742H51.5966C50.6161 15.7742 49.8284 15.0163 49.8284 14.09C49.8284 13.1637 50.6241 12.4058 51.5966 12.4058H56.6277C57.6082 12.4058 58.3958 13.1637 58.3958 14.09C58.3958 15.0163 57.6001 15.7742 56.6277 15.7742Z" fill="#DDE0F9"/>
<path d="M56.6277 23.1235H51.5966C50.6161 23.1235 49.8284 22.3656 49.8284 21.4393C49.8284 20.5054 50.6241 19.7551 51.5966 19.7551H56.6277C57.6082 19.7551 58.3958 20.513 58.3958 21.4393C58.3958 22.3733 57.6001 23.1235 56.6277 23.1235Z" fill="#DDE0F9"/>
<path d="M61.1766 30.4728H51.5966C50.6161 30.4728 49.8284 29.7149 49.8284 28.7886C49.8284 27.8546 50.6241 27.1044 51.5966 27.1044H61.1846C62.1651 27.1044 62.9528 27.8623 62.9528 28.7886C62.9528 29.7149 62.1571 30.4728 61.1766 30.4728Z" fill="#DDE0F9"/>
<path d="M56.6277 37.822H51.5966C50.6161 37.822 49.8284 37.0641 49.8284 36.1378C49.8284 35.2115 50.6241 34.4536 51.5966 34.4536H56.6277C57.6082 34.4536 58.3958 35.2115 58.3958 36.1378C58.3958 37.0641 57.6001 37.822 56.6277 37.822Z" fill="#DDE0F9"/>
<path d="M56.6277 45.1713H51.5966C50.6161 45.1713 49.8284 44.4134 49.8284 43.4871C49.8284 42.5531 50.6241 41.8029 51.5966 41.8029H56.6277C57.6082 41.8029 58.3958 42.5608 58.3958 43.4871C58.3958 44.4134 57.6001 45.1713 56.6277 45.1713Z" fill="#DDE0F9"/>
<path d="M28.4341 62.5951C28.4341 66.8669 32.0668 70.3195 36.5434 70.3195C41.028 70.3195 44.6527 66.8592 44.6527 62.5951C44.6527 58.331 41.02 54.8707 36.5434 54.8707C32.0668 54.8631 28.4341 58.3234 28.4341 62.5951Z" fill="#DDE0F9"/>
<path d="M36.5429 60.5514C35.3213 60.5514 34.3328 59.6098 34.3328 58.4462V16.8692C34.3328 15.7055 35.3213 14.7639 36.5429 14.7639C37.7645 14.7639 38.7531 15.7055 38.7531 16.8692V58.4385C38.7611 59.6098 37.7645 60.5514 36.5429 60.5514Z" fill="#DDE0F9"/>
</g>
<defs>
<clipPath id="clip0_93_2183">
<rect width="80" height="80.1316" fill="white" transform="translate(0 0.864502)"/>
</clipPath>
</defs>
</svg>
