<svg width="80" height="80" viewBox="0 0 80 80" fill="none" xmlns="http://www.w3.org/2000/svg">
<path d="M40.9217 2.22206C39.6796 2.76066 30.2203 15.6871 24.9492 24.083C19.1844 33.2392 15.7287 40.5421 14.4388 46.2766C13.133 52.0903 14.8051 59.8367 18.6111 65.4921C25.6976 76.0106 38.756 80.5254 50.7633 76.5968C57.8817 74.2681 63.6783 69.2464 67.134 62.3872C69.3475 57.9833 70.4304 52.2329 69.8412 47.9716C68.6627 39.4965 61.0666 25.6513 48.0242 8.21005C44.68 3.72697 43.613 2.45968 43.0079 2.20621C42.3391 1.92107 41.5747 1.93691 40.9217 2.22206ZM56.1299 48.035C57.0695 48.732 57.1969 49.0805 57.181 50.823C57.1491 54.5457 55.6203 57.9833 52.7539 60.8506C49.8715 63.702 46.4158 65.2227 42.6735 65.2544C40.9217 65.2703 40.5714 65.1435 39.8548 64.1772C39.393 63.5594 39.393 62.0703 39.8548 61.4525C40.4918 60.5971 40.9217 60.407 42.4824 60.2644C45.3807 59.9951 47.2757 59.1397 49.1549 57.2704C51.0021 55.4328 52.1646 52.8032 52.1806 50.427C52.1806 49.1756 52.7061 48.2726 53.6934 47.829C54.3304 47.5281 55.5885 47.6389 56.1299 48.035Z" fill="#DDE0F9"/>
</svg>
