<svg width="80" height="80" viewBox="0 0 80 80" fill="none" xmlns="http://www.w3.org/2000/svg">
<path d="M47.4113 5.73195V10.4631H49.6896H51.968V5.73195V0.999991H49.6896H47.4113V5.73195Z" fill="#DDE0F9"/>
<path d="M31.9603 8.68891L30.3939 10.3153L33.598 13.6421L36.8021 16.9689L38.3967 15.3132L40.0055 13.6421L36.8444 10.36C35.0932 8.54169 33.6403 7.06252 33.5973 7.06252C33.5557 7.06252 32.8148 7.80172 31.9603 8.68891Z" fill="#DDE0F9"/>
<path d="M62.5351 10.36L59.374 13.6421L60.9835 15.3132L62.5781 16.9689L65.7822 13.6421L68.9863 10.3153L67.4199 8.68891C66.5654 7.80172 65.8245 7.06252 65.7822 7.06252C65.7392 7.06252 64.2863 8.54092 62.5351 10.36Z" fill="#DDE0F9"/>
<path d="M47.8098 15.3422C45.5314 15.7415 43.3525 16.9247 41.6577 18.6836C40.8032 19.5708 39.7208 21.1525 39.3652 22.0551L39.1663 22.5577L39.9777 22.6463C40.4194 22.7057 41.4728 22.8537 42.3273 22.9862L43.8514 23.2082L44.6918 22.2617C45.6316 21.2119 46.7422 20.502 48.0525 20.1474C52.4385 18.9642 56.8103 22.7789 56.4971 27.4962L56.4258 28.4867L57.3085 29.0925C57.7925 29.4178 58.6611 30.0537 59.2453 30.5124L60.2847 31.3256L60.4695 30.7783C61.5801 27.4662 61.1102 23.5921 59.2305 20.6207C57.5074 17.8704 54.8727 16.0375 51.7681 15.4162C50.587 15.1796 48.9204 15.1503 47.8098 15.3422Z" fill="#DDE0F9"/>
<path d="M65.6388 27.0233V29.3889H70.1955H74.753V27.0233V24.6577H70.1962H65.6395V27.0233H65.6388Z" fill="#DDE0F9"/>
<path d="M32.6718 27.3339C25.0528 28.0878 17.5199 31.7699 12.0234 37.4476C6.71165 42.9481 3.35091 49.8529 2.26852 57.5116C1.84165 60.4391 1.77038 60.3212 3.22247 59.1087C7.42359 55.5746 13.2475 54.5101 18.3744 56.3146C19.8977 56.8472 21.92 58.0296 23.3157 59.1981L24.6401 60.3073L25.6653 59.4348C26.9615 58.3402 27.7447 57.7937 28.8694 57.2017C29.9235 56.6545 31.945 55.9299 32.9992 55.738L33.7401 55.6046V62.8348C33.7401 70.8635 33.7542 70.7155 32.8003 71.4693C32.3585 71.8239 32.1306 71.8979 31.4476 71.8979C30.8352 71.8979 30.5219 71.8239 30.2227 71.5872C29.5962 71.114 29.2398 70.4341 29.1403 69.6055C28.9837 68.2011 28.2718 67.3879 27.0758 67.2692C26.1642 67.1806 25.4381 67.5351 24.9541 68.2897C24.6267 68.8224 24.5977 68.9549 24.6549 70.0788C24.7403 71.6019 25.153 72.7257 26.0216 73.9382C28.5279 77.339 33.484 77.6195 36.3317 74.5147C36.7735 74.0415 37.2857 73.3169 37.4995 72.8884C38.2827 71.2913 38.2968 71.0546 38.2968 63.0113V55.6039L39.0518 55.7372C40.0911 55.9292 42.1134 56.6537 43.1676 57.201C44.3071 57.7922 45.0762 58.3395 46.3858 59.4486L47.4251 60.3212L48.2365 59.5966C50.4013 57.645 52.9647 56.3292 55.8837 55.6786C56.9802 55.442 60.6119 55.442 61.7225 55.6786C64.3142 56.2552 66.9206 57.5124 68.8568 59.1388C69.5405 59.7153 70.0527 60.0553 70.0527 59.9373C70.0527 59.0355 69.4974 55.6786 69.0557 53.8457C66.5064 43.466 59.4716 34.7275 50.0873 30.3362C44.734 27.8218 38.5537 26.7574 32.6718 27.3339Z" fill="#DDE0F9"/>
</svg>
